<?xml version="1.0" encoding="UTF-8"?>
<svg version="1.1" xmlns="http://www.w3.org/2000/svg" width="165" height="165">
<path d="M0 0 C0.82113281 0.2784375 1.64226562 0.556875 2.48828125 0.84375 C4.78411609 1.64297111 4.78411609 1.64297111 7.6875 1.5 C8.3475 1.5 9.0075 1.5 9.6875 1.5 C9.6875 3.48 9.6875 5.46 9.6875 7.5 C10.0175 5.52 10.3475 3.54 10.6875 1.5 C11.6775 1.5 12.6675 1.5 13.6875 1.5 C14.1825 8.43 14.1825 8.43 14.6875 15.5 C16.56574891 13.62175109 16.07852397 10.46064724 16.25 7.9375 C16.33378906 6.73996094 16.41757813 5.54242188 16.50390625 4.30859375 C16.59478516 2.91833984 16.59478516 2.91833984 16.6875 1.5 C17.6775 1.5 18.6675 1.5 19.6875 1.5 C19.6875 5.46 19.6875 9.42 19.6875 13.5 C21.3375 12.84 22.9875 12.18 24.6875 11.5 C25.0175 8.2 25.3475 4.9 25.6875 1.5 C26.6775 1.5 27.6675 1.5 28.6875 1.5 C29.1825 7.44 29.1825 7.44 29.6875 13.5 C30.3475 13.5 31.0075 13.5 31.6875 13.5 C31.6875 12.84 31.6875 12.18 31.6875 11.5 C31.0275 11.17 30.3675 10.84 29.6875 10.5 C30.3475 9.51 31.0075 8.52 31.6875 7.5 C31.0275 7.5 30.3675 7.5 29.6875 7.5 C29.6875 5.52 29.6875 3.54 29.6875 1.5 C34.3075 1.17 38.9275 0.84 43.6875 0.5 C44.1825 1.49 44.1825 1.49 44.6875 2.5 C45.76 1.84 46.8325 1.18 47.9375 0.5 C50.99730686 -1.38295807 51.8210864 -1.5 55.6875 -1.5 C55.6875 -0.84 55.6875 -0.18 55.6875 0.5 C56.326875 0.644375 56.96625 0.78875 57.625 0.9375 C59.6875 1.5 59.6875 1.5 60.6875 2.5 C61.3475 1.18 62.0075 -0.14 62.6875 -1.5 C63.6775 -0.51 63.6775 -0.51 64.6875 0.5 C65.6775 0.83 66.6675 1.16 67.6875 1.5 C67.6875 2.49 67.6875 3.48 67.6875 4.5 C68.6775 4.995 68.6775 4.995 69.6875 5.5 C69.6875 4.18 69.6875 2.86 69.6875 1.5 C70.6775 1.17 71.6675 0.84 72.6875 0.5 C73.6775 0.995 73.6775 0.995 74.6875 1.5 C75.0175 0.84 75.3475 0.18 75.6875 -0.5 C76.75 1.3125 76.75 1.3125 77.6875 3.5 C77.3575 4.49 77.0275 5.48 76.6875 6.5 C77.00998257 7.83599921 77.34522583 9.16893378 77.6875 10.5 C77.96319136 13.80829632 78.0268049 15.83924836 76.5 18.8125 C74.28085278 20.87860258 72.66204134 21.17842796 69.6875 21.5 C69.1925 17.54 69.1925 17.54 68.6875 13.5 C68.0275 13.5 67.3675 13.5 66.6875 13.5 C67.6775 15.975 67.6775 15.975 68.6875 18.5 C65.8125 19.125 65.8125 19.125 62.6875 19.5 C61.6975 18.51 61.6975 18.51 60.6875 17.5 C59.3675 18.82 58.0475 20.14 56.6875 21.5 C57.6775 21.17 58.6675 20.84 59.6875 20.5 C59.6875 21.16 59.6875 21.82 59.6875 22.5 C60.37199219 22.32597656 61.05648437 22.15195313 61.76171875 21.97265625 C65.14225722 21.42653455 68.09300643 21.62777331 71.5 21.9375 C72.66144531 22.03933594 73.82289063 22.14117187 75.01953125 22.24609375 C75.89996094 22.32988281 76.78039062 22.41367188 77.6875 22.5 C77.6875 23.82 77.6875 25.14 77.6875 26.5 C76.0375 26.83 74.3875 27.16 72.6875 27.5 C72.3575 31.46 72.0275 35.42 71.6875 39.5 C69.7075 39.005 69.7075 39.005 67.6875 38.5 C67.6875 34.21 67.6875 29.92 67.6875 25.5 C65.7075 26.16 63.7275 26.82 61.6875 27.5 C61.0275 27.17 60.3675 26.84 59.6875 26.5 C59.0275 26.5 58.3675 26.5 57.6875 26.5 C57.3575 28.48 57.0275 30.46 56.6875 32.5 C58.6675 32.83 60.6475 33.16 62.6875 33.5 C62.6875 32.84 62.6875 32.18 62.6875 31.5 C63.3475 31.5 64.0075 31.5 64.6875 31.5 C65.1825 34.47 65.1825 34.47 65.6875 37.5 C62.8565876 38.51912846 61.40641003 38.44696416 58.375 37.875 C53.73907214 37.40354971 51.77386661 38.41511908 47.6875 40.5 C47.3575 39.84 47.0275 39.18 46.6875 38.5 C45.0375 38.17 43.3875 37.84 41.6875 37.5 C41.3575 32.88 41.0275 28.26 40.6875 23.5 C38.80925109 25.37824891 39.29647603 28.53935276 39.125 31.0625 C39.04121094 32.26003906 38.95742187 33.45757812 38.87109375 34.69140625 C38.78021484 36.08166016 38.78021484 36.08166016 38.6875 37.5 C38.0275 37.5 37.3675 37.5 36.6875 37.5 C36.1925 38.49 36.1925 38.49 35.6875 39.5 C35.0275 38.84 34.3675 38.18 33.6875 37.5 C32.6975 36.84 31.7075 36.18 30.6875 35.5 C30.6875 34.18 30.6875 32.86 30.6875 31.5 C30.625625 32.44875 30.56375 33.3975 30.5 34.375 C30.231875 35.40625 29.96375 36.4375 29.6875 37.5 C26.79808309 39.17282031 25.0283643 39.5 21.6875 39.5 C19.5 38 19.5 38 17.6875 36.5 C17.1925 37.49 17.1925 37.49 16.6875 38.5 C14.625 39.125 14.625 39.125 12.6875 39.5 C12.6875 38.84 12.6875 38.18 12.6875 37.5 C9.05864676 37.34850702 9.05864676 37.34850702 5.6875 38.5 C4.594375 38.45875 3.50125 38.4175 2.375 38.375 C-1.54514079 38.50788613 -3.19366467 39.23175612 -6.3125 41.5 C-8.8125 39 -8.8125 39 -11.3125 36.5 C-11.6425 37.49 -11.9725 38.48 -12.3125 39.5 C-14.3125 38.5 -14.3125 38.5 -15.3125 37.5 C-15.38563567 34.96950598 -15.40497527 32.46695163 -15.375 29.9375 C-15.37048828 29.22658203 -15.36597656 28.51566406 -15.36132812 27.78320312 C-15.34950864 26.02209987 -15.33157263 24.26103964 -15.3125 22.5 C-14.6525 22.17 -13.9925 21.84 -13.3125 21.5 C-13.6425 20.51 -13.9725 19.52 -14.3125 18.5 C-15.3025 18.5 -16.2925 18.5 -17.3125 18.5 C-18.45327657 15.07767028 -18.41065117 12.41326783 -18.375 8.8125 C-18.36597656 7.63300781 -18.35695312 6.45351562 -18.34765625 5.23828125 C-18.33605469 4.33464844 -18.32445312 3.43101563 -18.3125 2.5 C-17.6525 2.5 -16.9925 2.5 -16.3125 2.5 C-15.9825 1.51 -15.6525 0.52 -15.3125 -0.5 C-10.4310167 -2.94074165 -4.95654621 -1.53848872 0 0 Z M-9.3125 -0.5 C-9.6425 0.16 -9.9725 0.82 -10.3125 1.5 C-8.6625 1.5 -7.0125 1.5 -5.3125 1.5 C-5.6425 0.84 -5.9725 0.18 -6.3125 -0.5 C-7.3025 -0.5 -8.2925 -0.5 -9.3125 -0.5 Z M51.6875 0.5 C55.6875 1.5 55.6875 1.5 55.6875 1.5 Z M-0.3125 1.5 C-1.49474668 5.04674003 -1.20579634 7.47522995 -0.875 11.1875 C-0.77316406 12.36699219 -0.67132813 13.54648438 -0.56640625 14.76171875 C-0.48261719 15.66535156 -0.39882812 16.56898437 -0.3125 17.5 C0.0175 17.5 0.3475 17.5 0.6875 17.5 C0.6875 12.22 0.6875 6.94 0.6875 1.5 C0.3575 1.5 0.0275 1.5 -0.3125 1.5 Z M6.6875 3.5 C6.6875 4.82 6.6875 6.14 6.6875 7.5 C7.3475 6.84 8.0075 6.18 8.6875 5.5 C8.0275 4.84 7.3675 4.18 6.6875 3.5 Z M-7.3125 4.5 C-7.6425 5.16 -7.9725 5.82 -8.3125 6.5 C-7.3225 6.17 -6.3325 5.84 -5.3125 5.5 C-5.9725 5.17 -6.6325 4.84 -7.3125 4.5 Z M34.6875 4.5 C34.6875 6.15 34.6875 7.8 34.6875 9.5 C35.6775 9.17 36.6675 8.84 37.6875 8.5 C36.6975 7.18 35.7075 5.86 34.6875 4.5 Z M60.6875 4.5 C61.6875 6.5 61.6875 6.5 61.6875 6.5 Z M42.6875 5.5 C43.6875 7.5 43.6875 7.5 43.6875 7.5 Z M52.6875 5.5 C49.61012879 8.51744663 49.61012879 8.51744663 48.6875 12.5 C51.9875 12.83 55.2875 13.16 58.6875 13.5 C59.45706136 11.15466049 59.45706136 11.15466049 59.6875 8.5 C58.60416667 6.58333333 58.60416667 6.58333333 56.6875 5.5 C55.3675 5.5 54.0475 5.5 52.6875 5.5 Z M-10.3125 8.5 C-10.3125 10.15 -10.3125 11.8 -10.3125 13.5 C-7.45471967 14.18493373 -7.45471967 14.18493373 -4.3125 14.5 C-3.3225 13.84 -2.3325 13.18 -1.3125 12.5 C-1.0622843 9.41634129 -1.0622843 9.41634129 -1.3125 6.5 C-5.10807881 6.5 -6.94152617 7.00178941 -10.3125 8.5 Z M-17.3125 8.5 C-16.3125 11.5 -16.3125 11.5 -16.3125 11.5 Z M60.6875 10.5 C61.6875 13.5 61.6875 13.5 61.6875 13.5 Z M3.6875 11.5 C3.6875 12.469375 3.6875 13.43875 3.6875 14.4375 C3.6875 15.79166667 3.6875 17.14583333 3.6875 18.5 C1.7075 19.49 1.7075 19.49 -0.3125 20.5 C0.0175 21.16 0.3475 21.82 0.6875 22.5 C4.03002724 22.57427838 6.4910914 22.56546953 9.6875 21.5 C11.68859278 21.82670903 13.68866131 22.15977214 15.6875 22.5 C16.3475 22.17 17.0075 21.84 17.6875 21.5 C18.3475 22.82 19.0075 24.14 19.6875 25.5 C20.14125 25.025625 20.595 24.55125 21.0625 24.0625 C22.6875 22.5 22.6875 22.5 24.6875 21.5 C24.6875 20.51 24.6875 19.52 24.6875 18.5 C24.0275 18.5 23.3675 18.5 22.6875 18.5 C22.6875 19.16 22.6875 19.82 22.6875 20.5 C21.0375 20.5 19.3875 20.5 17.6875 20.5 C17.6875 19.84 17.6875 19.18 17.6875 18.5 C16.615 18.665 15.5425 18.83 14.4375 19 C10.6875 19.5 10.6875 19.5 6.6875 19.5 C8.0075 18.84 9.3275 18.18 10.6875 17.5 C10.6875 15.52 10.6875 13.54 10.6875 11.5 C8.3775 11.5 6.0675 11.5 3.6875 11.5 Z M41.6875 11.5 C41.3575 12.16 41.0275 12.82 40.6875 13.5 C41.3475 13.5 42.0075 13.5 42.6875 13.5 C42.3575 12.84 42.0275 12.18 41.6875 11.5 Z M66.6875 11.5 C68.1725 12.49 68.1725 12.49 69.6875 13.5 C69.6875 12.84 69.6875 12.18 69.6875 11.5 C68.6975 11.5 67.7075 11.5 66.6875 11.5 Z M34.6875 12.5 C34.6875 14.15 34.6875 15.8 34.6875 17.5 C35.3475 16.51 36.0075 15.52 36.6875 14.5 C36.0275 13.84 35.3675 13.18 34.6875 12.5 Z M21.6875 13.5 C22.6875 15.5 22.6875 15.5 22.6875 15.5 Z M42.6875 13.5 C42.3575 14.16 42.0275 14.82 41.6875 15.5 C42.3475 15.5 43.0075 15.5 43.6875 15.5 C43.3575 14.84 43.0275 14.18 42.6875 13.5 Z M70.6875 13.5 C71.6875 17.5 71.6875 17.5 71.6875 17.5 Z M30.6875 14.5 C30.6875 17.5 30.6875 17.5 30.6875 17.5 Z M-11.3125 17.5 C-11.3125 18.16 -11.3125 18.82 -11.3125 19.5 C-10.6525 19.17 -9.9925 18.84 -9.3125 18.5 C-9.9725 18.17 -10.6325 17.84 -11.3125 17.5 Z M-5.3125 17.5 C-4.3125 19.5 -4.3125 19.5 -4.3125 19.5 Z M39.6875 17.5 C39.6875 18.16 39.6875 18.82 39.6875 19.5 C40.6775 19.83 41.6675 20.16 42.6875 20.5 C42.6875 19.84 42.6875 19.18 42.6875 18.5 C41.6975 18.17 40.7075 17.84 39.6875 17.5 Z M49.6875 17.5 C48.6975 18.985 48.6975 18.985 47.6875 20.5 C46.3675 20.17 45.0475 19.84 43.6875 19.5 C43.6875 20.16 43.6875 20.82 43.6875 21.5 C42.6975 21.995 42.6975 21.995 41.6875 22.5 C43.67317708 22.46744792 45.65885417 22.43489583 47.64453125 22.40234375 C49.6875 22.5 49.6875 22.5 52.6875 23.5 C53.3475 23.17 54.0075 22.84 54.6875 22.5 C53.89632096 20.50016466 53.89632096 20.50016466 52.6875 18.5 C51.6975 18.17 50.7075 17.84 49.6875 17.5 Z M31.6875 18.5 C31.3575 19.82 31.0275 21.14 30.6875 22.5 C32.6675 23.49 32.6675 23.49 34.6875 24.5 C34.3575 25.49 34.0275 26.48 33.6875 27.5 C34.3475 27.5 35.0075 27.5 35.6875 27.5 C35.3575 28.49 35.0275 29.48 34.6875 30.5 C35.3475 30.83 36.0075 31.16 36.6875 31.5 C36.6875 28.53 36.6875 25.56 36.6875 22.5 C38.0075 21.84 39.3275 21.18 40.6875 20.5 C40.0275 20.5 39.3675 20.5 38.6875 20.5 C38.3575 19.84 38.0275 19.18 37.6875 18.5 C35.7075 18.5 33.7275 18.5 31.6875 18.5 Z M-8.3125 19.5 C-7.9825 20.49 -7.6525 21.48 -7.3125 22.5 C-6.3225 22.83 -5.3325 23.16 -4.3125 23.5 C-3.6525 22.84 -2.9925 22.18 -2.3125 21.5 C-5.12759993 19.2226499 -5.12759993 19.2226499 -8.3125 19.5 Z M-11.3125 20.5 C-11.6425 21.82 -11.9725 23.14 -12.3125 24.5 C-11.3225 23.84 -10.3325 23.18 -9.3125 22.5 C-9.3125 21.84 -9.3125 21.18 -9.3125 20.5 C-9.9725 20.5 -10.6325 20.5 -11.3125 20.5 Z M27.6875 19.5 C27.0275 20.16 26.3675 20.82 25.6875 21.5 C27.0075 21.83 28.3275 22.16 29.6875 22.5 C29.0275 21.51 28.3675 20.52 27.6875 19.5 Z M24.6875 22.5 C25.6875 26.5 25.6875 26.5 25.6875 26.5 Z M63.6875 23.5 C63.6875 24.16 63.6875 24.82 63.6875 25.5 C64.3475 25.17 65.0075 24.84 65.6875 24.5 C65.0275 24.17 64.3675 23.84 63.6875 23.5 Z M2.6875 24.5 C2.0275 25.82 1.3675 27.14 0.6875 28.5 C0.0275 28.5 -0.6325 28.5 -1.3125 28.5 C-0.43035113 31.38214887 -0.43035113 31.38214887 0.6875 33.5 C2.3375 33.5 3.9875 33.5 5.6875 33.5 C6.3475 31.52 7.0075 29.54 7.6875 27.5 C6.31264468 25.95833358 6.31264468 25.95833358 4.6875 24.5 C4.0275 24.5 3.3675 24.5 2.6875 24.5 Z M50.6875 24.5 C50.6875 25.16 50.6875 25.82 50.6875 26.5 C51.3475 26.17 52.0075 25.84 52.6875 25.5 C52.0275 25.17 51.3675 24.84 50.6875 24.5 Z M-4.3125 26.5 C-3.3125 28.5 -3.3125 28.5 -3.3125 28.5 Z M26.6875 26.5 C26.6875 30.13 26.6875 33.76 26.6875 37.5 C27.0175 37.5 27.3475 37.5 27.6875 37.5 C27.6875 33.87 27.6875 30.24 27.6875 26.5 C27.3575 26.5 27.0275 26.5 26.6875 26.5 Z M44.6875 26.5 C44.6875 27.16 44.6875 27.82 44.6875 28.5 C46.0075 28.17 47.3275 27.84 48.6875 27.5 C47.3675 27.17 46.0475 26.84 44.6875 26.5 Z M10.6875 27.5 C10.3575 29.81 10.0275 32.12 9.6875 34.5 C11.1725 35.49 11.1725 35.49 12.6875 36.5 C12.6875 33.53 12.6875 30.56 12.6875 27.5 C12.0275 27.5 11.3675 27.5 10.6875 27.5 Z M20.6875 27.5 C21.6875 29.5 21.6875 29.5 21.6875 29.5 Z M24.6875 27.5 C25.6875 30.5 25.6875 30.5 25.6875 30.5 Z M-8.3125 28.5 C-7.3125 30.5 -7.3125 30.5 -7.3125 30.5 Z M-5.3125 28.5 C-5.6425 29.82 -5.9725 31.14 -6.3125 32.5 C-5.3225 32.5 -4.3325 32.5 -3.3125 32.5 C-3.9725 31.18 -4.6325 29.86 -5.3125 28.5 Z M49.6875 28.5 C50.3475 29.82 51.0075 31.14 51.6875 32.5 C51.6875 31.18 51.6875 29.86 51.6875 28.5 C51.0275 28.5 50.3675 28.5 49.6875 28.5 Z M24.6875 31.5 C25.6875 33.5 25.6875 33.5 25.6875 33.5 Z M45.6875 33.5 C49.6875 34.5 49.6875 34.5 49.6875 34.5 Z M24.6875 34.5 C25.6875 36.5 25.6875 36.5 25.6875 36.5 Z " fill="#616161" transform="translate(78.3125,64.5)"/>
<path d="M0 0 C1.32 0.33 2.64 0.66 4 1 C3.125 5.875 3.125 5.875 2 7 C2 11.34864254 3.63217451 14.37634454 5.5625 18.1875 C6.24505859 19.53908203 6.24505859 19.53908203 6.94140625 20.91796875 C7.46541016 21.94857422 7.46541016 21.94857422 8 23 C8.33 21.68 8.66 20.36 9 19 C12.96 18.505 12.96 18.505 17 18 C17.66 20.31 18.32 22.62 19 25 C18.01 25.66 17.02 26.32 16 27 C16.495 27.99 16.495 27.99 17 29 C16.67 29.66 16.34 30.32 16 31 C16.763125 31.103125 17.52625 31.20625 18.3125 31.3125 C21.19700648 32.05039701 22.35495989 32.53243984 24 35 C23.625 37 23.625 37 23 39 C23.33 39.99 23.66 40.98 24 42 C24.06940639 43.9989039 24.08455868 46.00001314 24.0625 48 C24.05347656 49.051875 24.04445312 50.10375 24.03515625 51.1875 C24.02355469 52.115625 24.01195312 53.04375 24 54 C24 54.99 24 55.98 24 57 C22.88213958 60.35358125 21.25245881 62.31158141 19 65 C19.33 65.66 19.66 66.32 20 67 C19.236875 67.433125 18.47375 67.86625 17.6875 68.3125 C15.06055486 69.81042642 15.06055486 69.81042642 13.5 71.5625 C9.63141954 75.2698896 5.04490052 75.24758706 -0.0625 75.1875 C-1.87427734 75.17783203 -1.87427734 75.17783203 -3.72265625 75.16796875 C-6.36889727 75.03234496 -8.491403 74.76922654 -11 74 C-12.11375 73.7215625 -12.11375 73.7215625 -13.25 73.4375 C-13.8275 73.293125 -14.405 73.14875 -15 73 C-14.505 72.01 -14.505 72.01 -14 71 C-14.639375 70.896875 -15.27875 70.79375 -15.9375 70.6875 C-16.618125 70.460625 -17.29875 70.23375 -18 70 C-18.33 69.01 -18.66 68.02 -19 67 C-19.66 66.71125 -20.32 66.4225 -21 66.125 C-23 65 -23 65 -23.6875 62.625 C-23.790625 61.75875 -23.89375 60.8925 -24 60 C-24.165 59.401875 -24.33 58.80375 -24.5 58.1875 C-25.48962599 53.85788629 -26 49.4408944 -26 45 C-25.34 45 -24.68 45 -24 45 C-24.495 43.515 -24.495 43.515 -25 42 C-24.0625 39.8125 -24.0625 39.8125 -23 38 C-22.67 38.99 -22.34 39.98 -22 41 C-21.01 41 -20.02 41 -19 41 C-19.33 39.02 -19.66 37.04 -20 35 C-21.485 35.495 -21.485 35.495 -23 36 C-23.95024979 32.30458414 -23.95024979 29.69541586 -23 26 C-22.360625 26.185625 -21.72125 26.37125 -21.0625 26.5625 C-20.0415625 26.7790625 -20.0415625 26.7790625 -19 27 C-18.67 26.67 -18.34 26.34 -18 26 C-17.34 25.34 -16.68 24.68 -16 24 C-15.01 24.33 -14.02 24.66 -13 25 C-13.33 23.02 -13.66 21.04 -14 19 C-13.34 19 -12.68 19 -12 19 C-11.67 18.34 -11.34 17.68 -11 17 C-11.66 16.34 -12.32 15.68 -13 15 C-12.505 14.54625 -12.01 14.0925 -11.5 13.625 C-9.77390663 12.12364481 -9.77390663 12.12364481 -10 10 C-8.68946944 8.97029741 -7.35113205 7.97581759 -6 7 C-3.60121639 4.74232131 -1.83774685 2.75662027 0 0 Z M9 25 C9.99 26.485 9.99 26.485 11 28 C11 27.01 11 26.02 11 25 C10.34 25 9.68 25 9 25 Z M-15 26 C-15 27.32 -15 28.64 -15 30 C-14.34 29.67 -13.68 29.34 -13 29 C-13.66 28.01 -14.32 27.02 -15 26 Z M10 31 C11 33 11 33 11 33 Z M-13 32 C-12.34 32.66 -11.68 33.32 -11 34 C-11 33.34 -11 32.68 -11 32 C-11.66 32 -12.32 32 -13 32 Z M17 33 C17.33 35.31 17.66 37.62 18 40 C18.33 40 18.66 40 19 40 C18.67 37.69 18.34 35.38 18 33 C17.67 33 17.34 33 17 33 Z M-18 45 C-17 47 -17 47 -17 47 Z " fill="#D77630" transform="translate(33,39)"/>
<path d="M0 0 C0.99 0.33 1.98 0.66 3 1 C2.98839844 1.85464844 2.97679687 2.70929687 2.96484375 3.58984375 C2.95582031 4.69457031 2.94679688 5.79929687 2.9375 6.9375 C2.92589844 8.03964844 2.91429687 9.14179687 2.90234375 10.27734375 C2.68737429 12.91447634 2.68737429 12.91447634 4 14 C3.5625 16.0625 3.5625 16.0625 3 18 C4.32 18.66 5.64 19.32 7 20 C6.34 20.99 5.68 21.98 5 23 C6.65 23 8.3 23 10 23 C10 20.69 10 18.38 10 16 C10.33 16 10.66 16 11 16 C11 18.64 11 21.28 11 24 C8.69 24 6.38 24 4 24 C4 24.66 4 25.32 4 26 C6.97 26 9.94 26 13 26 C13 22.7 13 19.4 13 16 C13.33 16 13.66 16 14 16 C14 19.3 14 22.6 14 26 C16.64 26 19.28 26 22 26 C22 26.33 22 26.66 22 27 C19.36 27 16.72 27 14 27 C14.12568359 28.12148437 14.12568359 28.12148437 14.25390625 29.265625 C14.35574219 30.25046875 14.45757812 31.2353125 14.5625 32.25 C14.66691406 33.22453125 14.77132812 34.1990625 14.87890625 35.203125 C14.98974468 37.7631352 14.77738092 39.58148159 14 42 C13.01 42 12.02 42 11 42 C8.525 37.545 8.525 37.545 6 33 C2.25724788 33.57125354 2.25724788 33.57125354 1 35 C1.99 35.66 2.98 36.32 4 37 C4.41903012 40.06553616 4.43973954 43.06037605 4.49609375 46.15234375 C4.74274575 49.06957128 4.74274575 49.06957128 6.7578125 50.85546875 C10.46457858 52.74759847 13.93834797 52.56371683 18 52 C20.97984167 50.66829691 20.97984167 50.66829691 23 49 C23.66 50.65 24.32 52.3 25 54 C21.35451867 56.30576694 18.24789022 56.23699872 14 56.1875 C12.1746875 56.17783203 12.1746875 56.17783203 10.3125 56.16796875 C7.65073398 56.03299712 5.52176953 55.77503926 3 55 C1.88625 54.7215625 1.88625 54.7215625 0.75 54.4375 C0.1725 54.293125 -0.405 54.14875 -1 54 C-0.67 53.34 -0.34 52.68 0 52 C-0.9590625 51.8453125 -0.9590625 51.8453125 -1.9375 51.6875 C-2.9584375 51.3471875 -2.9584375 51.3471875 -4 51 C-4.495 49.515 -4.495 49.515 -5 48 C-5.99 47.566875 -5.99 47.566875 -7 47.125 C-9 46 -9 46 -9.6875 43.625 C-9.790625 42.75875 -9.89375 41.8925 -10 41 C-10.165 40.401875 -10.33 39.80375 -10.5 39.1875 C-11.48962599 34.85788629 -12 30.4408944 -12 26 C-11.34 26 -10.68 26 -10 26 C-10.33 25.01 -10.66 24.02 -11 23 C-10.0625 20.8125 -10.0625 20.8125 -9 19 C-8.67 19.99 -8.34 20.98 -8 22 C-7.01 22 -6.02 22 -5 22 C-5.33 20.02 -5.66 18.04 -6 16 C-6.99 16.33 -7.98 16.66 -9 17 C-9.95024979 13.30458414 -9.95024979 10.69541586 -9 7 C-8.360625 7.185625 -7.72125 7.37125 -7.0625 7.5625 C-6.0415625 7.7790625 -6.0415625 7.7790625 -5 8 C-4.67 7.67 -4.34 7.34 -4 7 C-3.34 6.34 -2.68 5.68 -2 5 C-1.01 5.33 -0.02 5.66 1 6 C0.67 4.02 0.34 2.04 0 0 Z M-1 7 C-1 8.32 -1 9.64 -1 11 C-0.34 10.67 0.32 10.34 1 10 C0.34 9.01 -0.32 8.02 -1 7 Z M-4 26 C-3 28 -3 28 -3 28 Z " fill="#C96028" transform="translate(19,58)"/>
<path d="M0 0 C0.82113281 0.2784375 1.64226562 0.556875 2.48828125 0.84375 C4.78411609 1.64297111 4.78411609 1.64297111 7.6875 1.5 C8.3475 1.5 9.0075 1.5 9.6875 1.5 C9.6875 3.48 9.6875 5.46 9.6875 7.5 C10.0175 5.52 10.3475 3.54 10.6875 1.5 C11.6775 1.5 12.6675 1.5 13.6875 1.5 C14.1825 8.43 14.1825 8.43 14.6875 15.5 C15.6775 15.83 16.6675 16.16 17.6875 16.5 C17.6875 17.16 17.6875 17.82 17.6875 18.5 C14.77041076 20.48362069 13.56369096 20.4876191 9.9375 20.125 C8.32875 19.815625 8.32875 19.815625 6.6875 19.5 C7.0175 18.84 7.3475 18.18 7.6875 17.5 C8.3475 17.5 9.0075 17.5 9.6875 17.5 C9.6875 15.85 9.6875 14.2 9.6875 12.5 C8.0375 12.5 6.3875 12.5 4.6875 12.5 C5.0175 12.83 5.3475 13.16 5.6875 13.5 C5.72813832 15.16617115 5.730221 16.83388095 5.6875 18.5 C0.41894555 20.69523102 -2.68571106 21.79848976 -8.3125 20.5 C-9.3025 20.5 -10.2925 20.5 -11.3125 20.5 C-11.6425 21.16 -11.9725 21.82 -12.3125 22.5 C-12.3125 21.84 -12.3125 21.18 -12.3125 20.5 C-12.9725 20.5 -13.6325 20.5 -14.3125 20.5 C-14.3125 19.84 -14.3125 19.18 -14.3125 18.5 C-15.3025 18.5 -16.2925 18.5 -17.3125 18.5 C-18.45327657 15.07767028 -18.41065117 12.41326783 -18.375 8.8125 C-18.36597656 7.63300781 -18.35695312 6.45351562 -18.34765625 5.23828125 C-18.33605469 4.33464844 -18.32445312 3.43101563 -18.3125 2.5 C-17.6525 2.5 -16.9925 2.5 -16.3125 2.5 C-15.9825 1.51 -15.6525 0.52 -15.3125 -0.5 C-10.4310167 -2.94074165 -4.95654621 -1.53848872 0 0 Z M-9.3125 -0.5 C-9.6425 0.16 -9.9725 0.82 -10.3125 1.5 C-8.6625 1.5 -7.0125 1.5 -5.3125 1.5 C-5.6425 0.84 -5.9725 0.18 -6.3125 -0.5 C-7.3025 -0.5 -8.2925 -0.5 -9.3125 -0.5 Z M-0.3125 1.5 C-1.49474668 5.04674003 -1.20579634 7.47522995 -0.875 11.1875 C-0.77316406 12.36699219 -0.67132813 13.54648438 -0.56640625 14.76171875 C-0.48261719 15.66535156 -0.39882812 16.56898437 -0.3125 17.5 C0.0175 17.5 0.3475 17.5 0.6875 17.5 C0.6875 12.22 0.6875 6.94 0.6875 1.5 C0.3575 1.5 0.0275 1.5 -0.3125 1.5 Z M6.6875 3.5 C6.6875 4.82 6.6875 6.14 6.6875 7.5 C7.3475 6.84 8.0075 6.18 8.6875 5.5 C8.0275 4.84 7.3675 4.18 6.6875 3.5 Z M-7.3125 4.5 C-7.6425 5.16 -7.9725 5.82 -8.3125 6.5 C-7.3225 6.17 -6.3325 5.84 -5.3125 5.5 C-5.9725 5.17 -6.6325 4.84 -7.3125 4.5 Z M-10.3125 8.5 C-10.3125 10.15 -10.3125 11.8 -10.3125 13.5 C-7.45471967 14.18493373 -7.45471967 14.18493373 -4.3125 14.5 C-3.3225 13.84 -2.3325 13.18 -1.3125 12.5 C-1.0622843 9.41634129 -1.0622843 9.41634129 -1.3125 6.5 C-5.10807881 6.5 -6.94152617 7.00178941 -10.3125 8.5 Z M-17.3125 8.5 C-16.3125 11.5 -16.3125 11.5 -16.3125 11.5 Z M-11.3125 17.5 C-11.3125 18.16 -11.3125 18.82 -11.3125 19.5 C-10.6525 19.17 -9.9925 18.84 -9.3125 18.5 C-9.9725 18.17 -10.6325 17.84 -11.3125 17.5 Z M-5.3125 17.5 C-4.3125 19.5 -4.3125 19.5 -4.3125 19.5 Z " fill="#5F5F5F" transform="translate(78.3125,64.5)"/>
<path d="M0 0 C0.33 0 0.66 0 1 0 C1.3125 2.25 1.3125 2.25 1 5 C-1.5 7.3125 -1.5 7.3125 -4 9 C-3.67 9.99 -3.34 10.98 -3 12 C-2.01 12 -1.02 12 0 12 C-1 15 -1 15 -3 17 C-3 17.99 -3 18.98 -3 20 C-5.4315117 23.21334825 -8.3314178 25.61625452 -12.29296875 26.52734375 C-15.97939417 26.68171667 -18.58517359 26.17284434 -22 24.75 C-24.81601515 20.87797917 -24.60658461 17.3813787 -24.6640625 12.6796875 C-24.77492188 11.79539062 -24.88578125 10.91109375 -25 10 C-25.99 9.34 -26.98 8.68 -28 8 C-26.75 6.4375 -26.75 6.4375 -25 5 C-23.0625 4.875 -23.0625 4.875 -21 6 C-19.01008474 8.72339938 -17 11.53765313 -17 15 C-16.01 15 -15.02 15 -14 15 C-13.9175 14.071875 -13.835 13.14375 -13.75 12.1875 C-13 9 -13 9 -11.4375 7.3125 C-8.61551138 5.79296766 -5.76283307 4.79620771 -2.70703125 3.84375 C-2.14371094 3.5653125 -1.58039062 3.286875 -1 3 C-0.67 2.01 -0.34 1.02 0 0 Z " fill="#FAF6F4" transform="translate(47,85)"/>
<path d="M0 0 C1.90529153 2.07340549 3.10249087 3.70974948 4.125 6.3125 C2.145 7.3025 2.145 7.3025 0.125 8.3125 C0.125 9.3025 0.125 10.2925 0.125 11.3125 C0.785 11.6425 1.445 11.9725 2.125 12.3125 C2.455 11.9825 2.785 11.6525 3.125 11.3125 C3.785 11.3125 4.445 11.3125 5.125 11.3125 C6.8125 13.0625 6.8125 13.0625 8.125 15.3125 C7.8125 17.5625 7.8125 17.5625 7.125 19.3125 C5.805 19.3125 4.485 19.3125 3.125 19.3125 C0.92432579 20.24533296 0.92432579 20.24533296 -0.875 21.3125 C-1.08125 20.673125 -1.2875 20.03375 -1.5 19.375 C-2.77038209 16.96324923 -2.77038209 16.96324923 -6 16.5625 C-6.94875 16.48 -7.8975 16.3975 -8.875 16.3125 C-8.875 14.9925 -8.875 13.6725 -8.875 12.3125 C-9.535 11.9825 -10.195 11.6525 -10.875 11.3125 C-10.215 11.3125 -9.555 11.3125 -8.875 11.3125 C-8.875 10.6525 -8.875 9.9925 -8.875 9.3125 C-9.535 8.9825 -10.195 8.6525 -10.875 8.3125 C-10.215 7.3225 -9.555 6.3325 -8.875 5.3125 C-9.535 5.3125 -10.195 5.3125 -10.875 5.3125 C-10.875 3.3325 -10.875 1.3525 -10.875 -0.6875 C-3.66847319 -2.15323427 -3.66847319 -2.15323427 0 0 Z M-5.875 2.3125 C-5.875 3.9625 -5.875 5.6125 -5.875 7.3125 C-4.885 6.9825 -3.895 6.6525 -2.875 6.3125 C-3.865 4.9925 -4.855 3.6725 -5.875 2.3125 Z M-5.875 10.3125 C-5.875 11.9625 -5.875 13.6125 -5.875 15.3125 C-5.215 14.3225 -4.555 13.3325 -3.875 12.3125 C-4.535 11.6525 -5.195 10.9925 -5.875 10.3125 Z M-0.875 15.3125 C-0.875 15.9725 -0.875 16.6325 -0.875 17.3125 C0.115 17.6425 1.105 17.9725 2.125 18.3125 C2.125 17.6525 2.125 16.9925 2.125 16.3125 C1.135 15.9825 0.145 15.6525 -0.875 15.3125 Z " fill="#626262" transform="translate(118.875,66.6875)"/>
<path d="M0 0 C0.99 0 1.98 0 3 0 C3 3.96 3 7.92 3 12 C4.65 11.34 6.3 10.68 8 10 C8.33 6.7 8.66 3.4 9 0 C9.99 0 10.98 0 12 0 C12 4.29 12 8.58 12 13 C12.66 13.33 13.32 13.66 14 14 C14.72159424 15.64363134 15.39351421 17.31050386 16 19 C15.34 19 14.68 19 14 19 C13.67 19.66 13.34 20.32 13 21 C12.34 20.01 11.68 19.02 11 18 C8.43717258 17.27034634 8.43717258 17.27034634 6 17 C6 17.66 6 18.32 6 19 C4.35 19 2.7 19 1 19 C1 17.68 1 16.36 1 15 C0.34 14.34 -0.32 13.68 -1 13 C-0.9765625 9.9609375 -0.9765625 9.9609375 -0.625 6.375 C-0.51414062 5.18648438 -0.40328125 3.99796875 -0.2890625 2.7734375 C-0.19367188 1.85820313 -0.09828125 0.94296875 0 0 Z M5 12 C6 14 6 14 6 14 Z " fill="#6E6E6E" transform="translate(95,66)"/>
<path d="M0 0 C0.66 0 1.32 0 2 0 C2 0.66 2 1.32 2 2 C2.99 2.33 3.98 2.66 5 3 C5 3.66 5 4.32 5 5 C4.01 5.66 3.02 6.32 2 7 C1.74969023 9.58380177 1.74969023 9.58380177 2 12 C3.32 12 4.64 12 6 12 C5.67 13.65 5.34 15.3 5 17 C3.02 17.33 1.04 17.66 -1 18 C-1.33 17.34 -1.66 16.68 -2 16 C-2.33 16.99 -2.66 17.98 -3 19 C-5 18 -5 18 -6 17 C-6.07313567 14.46950598 -6.09247527 11.96695163 -6.0625 9.4375 C-6.05798828 8.72658203 -6.05347656 8.01566406 -6.04882812 7.28320312 C-6.03700864 5.52209987 -6.01907263 3.76103964 -6 2 C-5.01 1.67 -4.02 1.34 -3 1 C-2.67 1.66 -2.34 2.32 -2 3 C-1.34 2.01 -0.68 1.02 0 0 Z " fill="#6D6D6D" transform="translate(69,85)"/>
<path d="M0 0 C2.56687367 3.8503105 1.83288724 5.58569763 1 10 C-0.98 10 -2.96 10 -5 10 C-5 10.99 -5 11.98 -5 13 C-2.36 13 0.28 13 3 13 C2.01 13.495 2.01 13.495 1 14 C1.33 14.99 1.66 15.98 2 17 C0.02 17.99 0.02 17.99 -2 19 C-2.33 18.34 -2.66 17.68 -3 17 C-4.65 16.67 -6.3 16.34 -8 16 C-8 11.05 -8 6.1 -8 1 C-5.36 0.67 -2.72 0.34 0 0 Z M-5 5 C-5 5.66 -5 6.32 -5 7 C-3.68 6.67 -2.36 6.34 -1 6 C-2.32 5.67 -3.64 5.34 -5 5 Z " fill="#707070" transform="translate(128,86)"/>
<path d="M0 0 C1.2065625 1.2375 1.2065625 1.2375 2.4375 2.5 C5.83358088 5.33274993 8.53904403 5.609376 12.875 5.375 C15.72013103 4.87291805 17.72932989 3.75793815 20 2 C20.66 3.65 21.32 5.3 22 7 C18.35451867 9.30576694 15.24789022 9.23699872 11 9.1875 C9.1746875 9.17783203 9.1746875 9.17783203 7.3125 9.16796875 C4.65073398 9.03299712 2.52176953 8.77503926 0 8 C-0.7425 7.814375 -1.485 7.62875 -2.25 7.4375 C-3.11625 7.2209375 -3.11625 7.2209375 -4 7 C-3.67 6.34 -3.34 5.68 -3 5 C-4.32 4.67 -5.64 4.34 -7 4 C-7 3.34 -7 2.68 -7 2 C-4.69 2.33 -2.38 2.66 0 3 C0 2.01 0 1.02 0 0 Z " fill="#6A2719" transform="translate(22,105)"/>
<path d="M0 0 C4.62 0 9.24 0 14 0 C14 1.32 14 2.64 14 4 C12.35 4.33 10.7 4.66 9 5 C8.67 8.96 8.34 12.92 8 17 C6.68 16.67 5.36 16.34 4 16 C4 11.71 4 7.42 4 3 C2.68 2.34 1.36 1.68 0 1 C0 0.67 0 0.34 0 0 Z " fill="#6B6B6B" transform="translate(142,87)"/>
<path d="M0 0 C0 2.31 0 4.62 0 7 C0.66 7.33 1.32 7.66 2 8 C0.5437455 8.67119549 -0.91507867 9.33681807 -2.375 10 C-3.59316406 10.556875 -3.59316406 10.556875 -4.8359375 11.125 C-7 12 -7 12 -9 12 C-9 8.37 -9 4.74 -9 1 C-1.125 0 -1.125 0 0 0 Z " fill="#CB5C21" transform="translate(42,82)"/>
<path d="M0 0 C1.32 0.33 2.64 0.66 4 1 C3.8125 3.375 3.8125 3.375 3 6 C1.34302621 6.69040574 -0.3255761 7.3530635 -2 8 C-5.26941381 11.42147956 -7.53942013 14.48548039 -9 19 C-9.33 18.01 -9.66 17.02 -10 16 C-10.99 15.67 -11.98 15.34 -13 15 C-12.505 14.54625 -12.01 14.0925 -11.5 13.625 C-9.77390663 12.12364481 -9.77390663 12.12364481 -10 10 C-8.68946944 8.97029741 -7.35113205 7.97581759 -6 7 C-3.60121639 4.74232131 -1.83774685 2.75662027 0 0 Z " fill="#82693B" transform="translate(33,39)"/>
<path d="M0 0 C0.33 1.32 0.66 2.64 1 4 C0.01 4 -0.98 4 -2 4 C-2.33 5.32 -2.66 6.64 -3 8 C-3.66 8 -4.32 8 -5 8 C-4.97679687 8.61488281 -4.95359375 9.22976562 -4.9296875 9.86328125 C-4.91164063 10.67152344 -4.89359375 11.47976562 -4.875 12.3125 C-4.85179687 13.11300781 -4.82859375 13.91351563 -4.8046875 14.73828125 C-5 17 -5 17 -7 20 C-6.938125 18.96875 -6.87625 17.9375 -6.8125 16.875 C-7.01135595 12.76531027 -7.94467803 10.51117504 -10 7 C-9.34 6.01 -8.68 5.02 -8 4 C-8 3.01 -8 2.02 -8 1 C-5.10765685 0.17361624 -3.11257569 0 0 0 Z M-8 7 C-7.01 8.485 -7.01 8.485 -6 10 C-6 9.01 -6 8.02 -6 7 C-6.66 7 -7.32 7 -8 7 Z " fill="#483B2E" transform="translate(50,57)"/>
<path d="M0 0 C0.33 0 0.66 0 1 0 C1 3.3 1 6.6 1 10 C3.64 10 6.28 10 9 10 C9 10.33 9 10.66 9 11 C6.36 11 3.72 11 1 11 C1.08378906 11.74765625 1.16757812 12.4953125 1.25390625 13.265625 C1.35574219 14.25046875 1.45757812 15.2353125 1.5625 16.25 C1.66691406 17.22453125 1.77132812 18.1990625 1.87890625 19.203125 C1.98974468 21.7631352 1.77738092 23.58148159 1 26 C0.01 26 -0.98 26 -2 26 C-1.67 21.05 -1.34 16.1 -1 11 C-3.31 11 -5.62 11 -8 11 C-8 10.67 -8 10.34 -8 10 C-5.36 10 -2.72 10 0 10 C0 6.7 0 3.4 0 0 Z " fill="#AC4F19" transform="translate(32,74)"/>
<path d="M0 0 C1.98 0.495 1.98 0.495 4 1 C5.06214225 4.43536634 5.07039472 7.54366881 5 11.125 C4.79182142 15.21839428 4.79182142 15.21839428 6 19 C5.34 19.66 4.68 20.32 4 21 C1 17.25 1 17.25 1 15 C1.99 15 2.98 15 4 15 C3.67 13.02 3.34 11.04 3 9 C2.01 9.33 1.02 9.66 0 10 C-0.95024979 6.30458414 -0.95024979 3.69541586 0 0 Z " fill="#563B30" transform="translate(10,65)"/>
<path d="M0 0 C0.66 0 1.32 0 2 0 C2 3.3 2 6.6 2 10 C-0.97 10 -3.94 10 -7 10 C-7 9.34 -7 8.68 -7 8 C-4.69 8 -2.38 8 0 8 C0 5.36 0 2.72 0 0 Z " fill="#E2C27E" transform="translate(30,74)"/>
<path d="M0 0 C0.66 0 1.32 0 2 0 C3.6875 1.75 3.6875 1.75 5 4 C4.6875 6.25 4.6875 6.25 4 8 C2.68 8 1.36 8 0 8 C-2.20067421 8.93283296 -2.20067421 8.93283296 -4 10 C-4.33 9.34 -4.66 8.68 -5 8 C-4.34 8 -3.68 8 -3 8 C-2.67 7.34 -2.34 6.68 -2 6 C-1.01979625 4.9805881 -0.02196992 3.97753644 1 3 C0.67 2.01 0.34 1.02 0 0 Z " fill="#3B3B3B" transform="translate(122,78)"/>
<path d="M0 0 C-1.1446875 0.8971875 -1.1446875 0.8971875 -2.3125 1.8125 C-4.3483575 3.46959332 -6.1978279 5.10297674 -8 7 C-8.66 5.68 -9.32 4.36 -10 3 C-6.84439813 -0.15560187 -4.30999015 -1.43666338 0 0 Z " fill="#50282D" transform="translate(53,105)"/>
<path d="M0 0 C-0.50603992 2.16874252 -0.99983813 3.99967627 -2 6 C-2.66 6 -3.32 6 -4 6 C-4 6.66 -4 7.32 -4 8 C-5.65 8.33 -7.3 8.66 -9 9 C-7.68 8.34 -6.36 7.68 -5 7 C-5 6.34 -5 5.68 -5 5 C-5.99 4.67 -6.98 4.34 -8 4 C-2.25 0 -2.25 0 0 0 Z " fill="#D6AD9F" transform="translate(49,90)"/>
<path d="M0 0 C2.64 0 5.28 0 8 0 C8 0.66 8 1.32 8 2 C6.02 2 4.04 2 2 2 C1.67 4.31 1.34 6.62 1 9 C0.67 9 0.34 9 0 9 C0 6.03 0 3.06 0 0 Z " fill="#F0D77C" transform="translate(33,85)"/>
<path d="M0 0 C1.9375 0.8125 1.9375 0.8125 4 2 C5.71428571 7.14285714 5.71428571 7.14285714 6 10 C4.625 11.8125 4.625 11.8125 3 13 C2.67 13 2.34 13 2 13 C1.93941406 12.22914062 1.87882812 11.45828125 1.81640625 10.6640625 C1.73261719 9.66117188 1.64882812 8.65828125 1.5625 7.625 C1.48128906 6.62726563 1.40007812 5.62953125 1.31640625 4.6015625 C1.15034374 2.02072387 1.15034374 2.02072387 0 0 Z " fill="#393939" transform="translate(97,64)"/>
<path d="M0 0 C0.99 0.33 1.98 0.66 3 1 C3 4.96 3 8.92 3 13 C1.68 13.33 0.36 13.66 -1 14 C-1 13.01 -1 12.02 -1 11 C-0.34 10.67 0.32 10.34 1 10 C1.11320856 4.91696314 1.11320856 4.91696314 0 0 Z " fill="#382F27" transform="translate(19,58)"/>
<path d="M0 0 C2.32472205 2.85306797 3.7508258 5.54074837 5 9 C3.1875 8.8125 3.1875 8.8125 1 8 C-2 3.82142857 -2 3.82142857 -2 1 C-1.34 0.67 -0.68 0.34 0 0 Z " fill="#654E2D" transform="translate(36,54)"/>
<path d="M0 0 C1.32 0.33 2.64 0.66 4 1 C3.75 2.875 3.75 2.875 3 5 C0.9375 6.25 0.9375 6.25 -1 7 C-1 4.37886292 -0.68707555 2.49064888 0 0 Z " fill="#6D4B38" transform="translate(16,63)"/>
<path d="M0 0 C2.0625 0.4375 2.0625 0.4375 4 1 C4 2.65 4 4.3 4 6 C3.01 5.34 2.02 4.68 1 4 C1.33 5.32 1.66 6.64 2 8 C1.01 7.67 0.02 7.34 -1 7 C-1.04254356 5.00045254 -1.04080783 2.99958364 -1 1 C-0.67 0.67 -0.34 0.34 0 0 Z " fill="#191919" transform="translate(84,65)"/>
<path d="M0 0 C1.32 0 2.64 0 4 0 C4.33 1.32 4.66 2.64 5 4 C4.01 4 3.02 4 2 4 C2 4.99 2 5.98 2 7 C1.01 6.67 0.02 6.34 -1 6 C-0.67 4.02 -0.34 2.04 0 0 Z " fill="#191E29" transform="translate(46,57)"/>
<path d="M0 0 C0.66 0 1.32 0 2 0 C1.29445932 3.66881155 -0.27735506 6.70450534 -2 10 C-2.93423645 6.98968256 -3.04449911 6.13349732 -2 3 C-1.34 3 -0.68 3 0 3 C0 2.01 0 1.02 0 0 Z " fill="#303030" transform="translate(74,87)"/>
<path d="M0 0 C2.7839183 1.39195915 2.97898997 3.15575779 4 6 C3.34 6 2.68 6 2 6 C1.67 6.66 1.34 7.32 1 8 C-1.125 3.375 -1.125 3.375 0 0 Z " fill="#9C9C9C" transform="translate(107,79)"/>
<path d="M0 0 C-1 3 -1 3 -4 5 C-4.99 5 -5.98 5 -7 5 C-7 4.01 -7 3.02 -7 2 C-2.25 0 -2.25 0 0 0 Z " fill="#EEDED7" transform="translate(47,97)"/>
<path d="M0 0 C0.99 0 1.98 0 3 0 C3 1.98 3 3.96 3 6 C2.34 6 1.68 6 1 6 C0.34 4.35 -0.32 2.7 -1 1 C-0.67 0.67 -0.34 0.34 0 0 Z " fill="#D55E24" transform="translate(26,88)"/>
<path d="M0 0 C2.5 1.375 2.5 1.375 5 3 C5 3.66 5 4.32 5 5 C3.35 5.66 1.7 6.32 0 7 C0 4.69 0 2.38 0 0 Z " fill="#8C572D" transform="translate(47,59)"/>
<path d="M0 0 C0.99 0.495 0.99 0.495 2 1 C1.67 2.32 1.34 3.64 1 5 C0.67 3.35 0.34 1.7 0 0 Z " fill="#000000" transform="translate(57,86)"/>
<path d="M0 0 C0.33 0 0.66 0 1 0 C1 1.98 1 3.96 1 6 C0.67 6 0.34 6 0 6 C0 4.02 0 2.04 0 0 Z " fill="#2A2A2A" transform="translate(93,66)"/>
<path d="M0 0 C0.66 0.66 1.32 1.32 2 2 C1.01 2.33 0.02 2.66 -1 3 C-0.67 2.01 -0.34 1.02 0 0 Z " fill="#666666" transform="translate(118,101)"/>
<path d="M0 0 C0.33 0 0.66 0 1 0 C1 1.65 1 3.3 1 5 C0.67 5 0.34 5 0 5 C0 3.35 0 1.7 0 0 Z " fill="#666666" transform="translate(61,97)"/>
<path d="M0 0 C0.33 0 0.66 0 1 0 C1 1.65 1 3.3 1 5 C0.67 5 0.34 5 0 5 C0 3.35 0 1.7 0 0 Z " fill="#333333" transform="translate(93,74)"/>
<path d="M0 0 C0.66 0 1.32 0 2 0 C1.67 0.99 1.34 1.98 1 3 C0.67 2.01 0.34 1.02 0 0 Z " fill="#E5E5E5" transform="translate(107,63)"/>
<path d="M0 0 C0 3 0 3 0 3 Z " fill="#202020" transform="translate(103,64)"/>
<path d="M0 0 C0.66 0 1.32 0 2 0 C1.67 0.99 1.34 1.98 1 3 C0.67 2.01 0.34 1.02 0 0 Z " fill="#000000" transform="translate(39,51)"/>
<path d="M0 0 C0.66 0 1.32 0 2 0 C2 0.66 2 1.32 2 2 C1.34 2 0.68 2 0 2 C0 1.34 0 0.68 0 0 Z " fill="#000000" transform="translate(21,41)"/>
<path d="M0 0 C0.66 0.66 1.32 1.32 2 2 C1.34 2 0.68 2 0 2 C0 1.34 0 0.68 0 0 Z " fill="#000000" transform="translate(58,110)"/>
<path d="" fill="#555555" transform="translate(0,0)"/>
<path d="" fill="#1C1C1C" transform="translate(0,0)"/>
<path d="M0 0 C0.33 0.66 0.66 1.32 1 2 C0.34 1.67 -0.32 1.34 -1 1 C-0.67 0.67 -0.34 0.34 0 0 Z " fill="#AAAAAA" transform="translate(61,87)"/>
<path d="M0 0 C0.33 0.66 0.66 1.32 1 2 C0.34 1.67 -0.32 1.34 -1 1 C-0.67 0.67 -0.34 0.34 0 0 Z " fill="#1C1C1C" transform="translate(114,85)"/>
<path d="" fill="#000000" transform="translate(0,0)"/>
<path d="M0 0 C0.66 0 1.32 0 2 0 C1.67 0.66 1.34 1.32 1 2 C0.67 1.34 0.34 0.68 0 0 Z " fill="#808080" transform="translate(150,63)"/>
<path d="M0 0 C2 1 2 1 2 1 Z " fill="#000000" transform="translate(57,107)"/>
<path d="M0 0 C2 1 2 1 2 1 Z " fill="#404040" transform="translate(85,105)"/>
<path d="" fill="#7F7F7F" transform="translate(0,0)"/>
<path d="" fill="#BFBFBF" transform="translate(0,0)"/>
<path d="" fill="#808080" transform="translate(0,0)"/>
<path d="" fill="#303030" transform="translate(0,0)"/>
<path d="" fill="#808080" transform="translate(0,0)"/>
<path d="" fill="#000000" transform="translate(0,0)"/>
<path d="M0 0 C2 1 2 1 2 1 Z " fill="#000000" transform="translate(134,72)"/>
<path d="M0 0 C2 1 2 1 2 1 Z " fill="#BFBFBF" transform="translate(114,64)"/>
<path d="" fill="#000000" transform="translate(0,0)"/>
<path d="" fill="#000000" transform="translate(0,0)"/>
<path d="" fill="#000000" transform="translate(0,0)"/>
<path d="" fill="#000000" transform="translate(0,0)"/>
<path d="" fill="#000055" transform="translate(0,0)"/>
<path d="" fill="#000000" transform="translate(0,0)"/>
<path d="" fill="#000000" transform="translate(0,0)"/>
<path d="" fill="#FFFFFF" transform="translate(0,0)"/>
<path d="" fill="#000000" transform="translate(0,0)"/>
<path d="" fill="#AAAAAA" transform="translate(0,0)"/>
<path d="" fill="#000000" transform="translate(0,0)"/>
<path d="" fill="#000000" transform="translate(0,0)"/>
<path d="" fill="#000000" transform="translate(0,0)"/>
<path d="" fill="#000000" transform="translate(0,0)"/>
<path d="" fill="#000000" transform="translate(0,0)"/>
<path d="" fill="#FFFFFF" transform="translate(0,0)"/>
<path d="" fill="#000000" transform="translate(0,0)"/>
<path d="" fill="#000000" transform="translate(0,0)"/>
<path d="" fill="#008080" transform="translate(0,0)"/>
<path d="" fill="#AAAAAA" transform="translate(0,0)"/>
<path d="" fill="#FFFFFF" transform="translate(0,0)"/>
<path d="" fill="#808080" transform="translate(0,0)"/>
<path d="" fill="#000000" transform="translate(0,0)"/>
<path d="" fill="#000000" transform="translate(0,0)"/>
<path d="" fill="#555555" transform="translate(0,0)"/>
<path d="" fill="#000000" transform="translate(0,0)"/>
<path d="" fill="#000000" transform="translate(0,0)"/>
<path d="" fill="#000000" transform="translate(0,0)"/>
<path d="" fill="#000000" transform="translate(0,0)"/>
<path d="" fill="#000000" transform="translate(0,0)"/>
<path d="" fill="#FFFFFF" transform="translate(0,0)"/>
<path d="" fill="#000000" transform="translate(0,0)"/>
<path d="" fill="#000000" transform="translate(0,0)"/>
<path d="" fill="#000000" transform="translate(0,0)"/>
<path d="" fill="#000000" transform="translate(0,0)"/>
<path d="" fill="#000000" transform="translate(0,0)"/>
<path d="" fill="#000000" transform="translate(0,0)"/>
<path d="" fill="#000000" transform="translate(0,0)"/>
<path d="" fill="#FFFFFF" transform="translate(0,0)"/>
<path d="" fill="#808080" transform="translate(0,0)"/>
<path d="" fill="#666666" transform="translate(0,0)"/>
<path d="" fill="#666666" transform="translate(0,0)"/>
<path d="" fill="#000000" transform="translate(0,0)"/>
<path d="" fill="#808080" transform="translate(0,0)"/>
<path d="" fill="#FFFFFF" transform="translate(0,0)"/>
<path d="" fill="#000000" transform="translate(0,0)"/>
<path d="" fill="#808080" transform="translate(0,0)"/>
<path d="" fill="#000000" transform="translate(0,0)"/>
<path d="" fill="#000000" transform="translate(0,0)"/>
<path d="" fill="#000000" transform="translate(0,0)"/>
<path d="" fill="#000000" transform="translate(0,0)"/>
<path d="" fill="#000000" transform="translate(0,0)"/>
<path d="" fill="#000000" transform="translate(0,0)"/>
<path d="" fill="#808080" transform="translate(0,0)"/>
<path d="" fill="#000000" transform="translate(0,0)"/>
<path d="" fill="#000000" transform="translate(0,0)"/>
<path d="" fill="#FFFFFF" transform="translate(0,0)"/>
<path d="" fill="#000000" transform="translate(0,0)"/>
<path d="" fill="#000000" transform="translate(0,0)"/>
<path d="" fill="#666666" transform="translate(0,0)"/>
<path d="" fill="#000000" transform="translate(0,0)"/>
<path d="" fill="#808080" transform="translate(0,0)"/>
<path d="" fill="#666666" transform="translate(0,0)"/>
<path d="" fill="#555555" transform="translate(0,0)"/>
<path d="" fill="#808080" transform="translate(0,0)"/>
<path d="" fill="#404040" transform="translate(0,0)"/>
<path d="" fill="#808080" transform="translate(0,0)"/>
<path d="" fill="#000000" transform="translate(0,0)"/>
<path d="" fill="#808080" transform="translate(0,0)"/>
<path d="" fill="#000000" transform="translate(0,0)"/>
<path d="" fill="#000000" transform="translate(0,0)"/>
<path d="" fill="#000000" transform="translate(0,0)"/>
<path d="" fill="#000000" transform="translate(0,0)"/>
<path d="" fill="#000000" transform="translate(0,0)"/>
<path d="" fill="#000040" transform="translate(0,0)"/>
<path d="" fill="#000055" transform="translate(0,0)"/>
<path d="" fill="#000000" transform="translate(0,0)"/>
<path d="" fill="#000000" transform="translate(0,0)"/>
</svg>
