<?xml version="1.0" encoding="UTF-8"?>
<svg version="1.1" xmlns="http://www.w3.org/2000/svg" width="512" height="513">
<path d="M0 0 C3.41285751 2.9210913 6.72486856 5.92597312 10 9 C10.88558594 9.77150391 10.88558594 9.77150391 11.7890625 10.55859375 C33.69813403 30.54672773 45.14080455 63.74178242 46.60879517 92.62895203 C46.76363652 96.64488755 46.88644993 100.6606162 46.98403931 104.67834473 C47.11900338 110.06955843 47.31838104 115.45841698 47.515625 120.84765625 C47.55363724 121.90536224 47.59164948 122.96306824 47.6308136 124.05282593 C50.35449366 196.52902008 71.06090713 268.89978341 125.0546875 319.94238281 C127.7514348 322.43236278 130.44854265 324.91856285 133.20214844 327.34570312 C137.22837423 330.96648776 139.49913552 333.70361283 140.3359375 339.2109375 C140.440947 345.02846388 139.50022572 348.30232863 136 353 C131.52103524 356.59445157 128.5510025 357.50039023 122.84411621 357.50336456 C122.14338077 357.50917833 121.44264532 357.51499209 120.72067547 357.52098203 C118.3726773 357.53557969 116.02572491 357.5216988 113.67773438 357.50793457 C111.97740901 357.5125436 110.27708763 357.51889653 108.5767746 357.52684355 C103.90435764 357.54355978 99.232267 357.53528008 94.55984879 357.52289867 C89.52091498 357.5138599 84.48203784 357.52781209 79.44311523 357.53881836 C69.57185287 357.55662069 59.70071205 357.55275595 49.82944489 357.5411678 C41.80808005 357.5321405 33.78674932 357.53090643 25.76538086 357.53526306 C24.62447731 357.53587599 23.48357375 357.53648893 22.30809736 357.53712043 C19.99049694 357.53839931 17.67289653 357.53969616 15.35529613 357.5410108 C-6.38553661 357.55242162 -28.12630192 357.539295 -49.8671236 357.51780933 C-68.52863701 357.49993791 -87.19005089 357.50304187 -105.8515625 357.52148438 C-127.51369618 357.5428822 -149.17577074 357.55132293 -170.83791351 357.53903532 C-173.14706929 357.5377611 -175.45622507 357.53650362 -177.76538086 357.53526306 C-178.90158009 357.53464596 -180.03777932 357.53402886 -181.20840883 357.53339306 C-189.22171731 357.5299369 -197.23498834 357.53577424 -205.24829102 357.54518127 C-215.01158346 357.55639055 -224.77474723 357.55338375 -234.5380249 357.5320583 C-239.52103763 357.52153348 -244.5038357 357.51745046 -249.48684692 357.53065491 C-254.0465141 357.54255495 -258.6057672 357.53605575 -263.16539669 357.5147447 C-264.81672219 357.51026849 -266.46808252 357.51256769 -268.11938572 357.52224785 C-270.36146221 357.53438519 -272.60211442 357.52196569 -274.84411621 357.50336456 C-276.09014366 357.50271515 -277.33617111 357.50206574 -278.61995697 357.50139666 C-283.80008078 356.73297545 -286.86353668 354.25932422 -290.3125 350.4375 C-293.18410556 346.28962531 -293.40640889 342.95818843 -293 338 C-290.36724506 329.82460309 -283.95463903 325.08092952 -277.73144531 319.55566406 C-268.94537706 311.66158244 -261.35647278 303.09654254 -254.26416016 293.66552734 C-253.09891784 292.13032396 -251.90048054 290.6204671 -250.69921875 289.11328125 C-211.74673482 239.50594381 -201.09408651 172.28800364 -199.828125 110.98046875 C-198.94245447 69.47870855 -190.26314686 36.04085945 -160.53515625 5.46484375 C-116.76723795 -35.82701927 -46.17337569 -38.45563566 0 0 Z " fill="#000000" transform="translate(333,88)"/>
<path d="M0 0 C42.24 0 84.48 0 128 0 C121.08664959 17.28337604 104.9819112 27.68423813 88.5546875 34.73828125 C71.01245052 40.96481152 49.99599897 40.03256694 33.14453125 32.26953125 C19.21412838 25.46614938 7.55498573 15.72796187 0 2 C0 1.34 0 0.68 0 0 Z " fill="#000000" transform="translate(187,474)"/>
<path d="M0 0 C1.23363281 -0.02900391 2.46726562 -0.05800781 3.73828125 -0.08789062 C11.50958138 -0.14157123 17.45586424 0.72803503 24.375 4.3125 C25.38691406 4.83070313 26.39882813 5.34890625 27.44140625 5.8828125 C38.20825372 12.58892407 45.9711169 21.29928447 50.375 33.3125 C51.14253679 36.62915534 51.78573196 39.95992511 52.375 43.3125 C51.82263672 43.11615967 51.27027344 42.91981934 50.70117188 42.7175293 C19.15588585 31.60023349 -10.80708031 29.54422833 -42.625 41.3125 C-44.37298336 41.90184876 -46.12284557 42.48567018 -47.875 43.0625 C-49.1125 43.475 -50.35 43.8875 -51.625 44.3125 C-50.85268847 30.92576676 -44.03854778 20.15427322 -34.4375 11.125 C-23.44343361 2.21777028 -13.65500606 0.10503851 0 0 Z " fill="#000000" transform="translate(254.625,-0.3125)"/>
</svg>
