<?xml version="1.0" encoding="UTF-8"?>
<svg version="1.1" xmlns="http://www.w3.org/2000/svg" width="512" height="512">
<path d="M0 0 C12.03035732 7.29062694 20.24754898 17.37940117 24 31 C24.32827199 34.04577441 24.37988472 37.06319516 24.375 40.125 C24.37628906 40.95942627 24.37757813 41.79385254 24.37890625 42.65356445 C24.25901113 49.71307098 22.8979095 55.5185149 20 62 C20.78697266 62.185625 20.78697266 62.185625 21.58984375 62.375 C52.52748542 70.6113106 80.02151528 94.14410631 95.95019531 121.56469727 C107.18557943 141.5347273 114.28889479 163.18290776 114.30297852 186.25024414 C114.31141785 187.30412323 114.31985718 188.35800232 114.32855225 189.44381714 C114.35411342 192.89093544 114.36642814 196.33796806 114.37890625 199.78515625 C114.39511545 202.21114245 114.41229891 204.63712231 114.43040466 207.06309509 C114.47591517 213.43265817 114.51078833 219.80223041 114.54260254 226.171875 C114.59459821 236.33878345 114.66044331 246.50559615 114.73081779 256.67239189 C114.75331138 260.19207325 114.76980484 263.7117434 114.78553772 267.23146057 C114.83953333 292.15495568 114.83953333 292.15495568 117.6875 316.875 C117.85975098 317.87329834 118.03200195 318.87159668 118.20947266 319.90014648 C127.11467842 369.00300074 153.07190973 404.41633757 187.71899414 438.68261719 C188.26348709 439.22277466 188.80798004 439.76293213 189.36897278 440.31945801 C190.40884433 441.35080577 191.45076401 442.3800934 192.49491882 443.40710449 C193.68216951 444.58601239 194.84403787 445.79039694 196 447 C196 447.33 196 447.66 196 448 C148.81 448 101.62 448 53 448 C52.01 451.96 51.02 455.92 50 460 C46.58208609 468.48556349 42.12224456 476.18232807 36 483 C35.27167969 483.82113281 34.54335938 484.64226562 33.79296875 485.48828125 C21.31600961 498.77150592 3.75526184 507.60328571 -14.6015625 508.3359375 C-35.89272878 508.65714801 -54.7085042 504.62970388 -71 490 C-71.82113281 489.27167969 -72.64226562 488.54335938 -73.48828125 487.79296875 C-84.89020611 477.08311823 -92.42459303 463.45244183 -95 448 C-142.19 448 -189.38 448 -238 448 C-234.06556535 443.40982624 -230.20347371 439.09170928 -225.89453125 434.90234375 C-224.73342055 433.75877152 -223.5726236 432.61488066 -222.41210938 431.47070312 C-220.623445 429.71267239 -218.83260397 427.95707906 -217.03588867 426.20727539 C-200.37536559 409.95709867 -186.7426097 391.87230104 -176.83007812 370.75732422 C-176.12117824 369.25654146 -175.3837577 367.7692862 -174.640625 366.28515625 C-159.00360805 334.14804024 -156.88826729 299.12949055 -156.83133507 264.04568672 C-156.82402625 260.47229181 -156.80826093 256.89902329 -156.78999329 253.32566833 C-156.73816847 243.18026387 -156.6895863 233.03493853 -156.67407227 222.8894043 C-156.66390394 216.64275149 -156.63437615 210.39643473 -156.59275246 204.1499157 C-156.58058248 201.79683934 -156.57529504 199.44371534 -156.57755089 197.0906086 C-156.60693357 156.47032074 -144.04153589 123.50607079 -116 94 C-115.12794922 93.03126953 -115.12794922 93.03126953 -114.23828125 92.04296875 C-101.85704503 78.72612274 -80.04205446 64.92301441 -62 62 C-62.28875 61.35417969 -62.5775 60.70835938 -62.875 60.04296875 C-67.14414367 49.20705199 -68.10581727 36.21988679 -64.5 25 C-58.97572736 12.51708218 -49.62859028 3.15402814 -37 -2 C-36.13117188 -2.35707031 -35.26234375 -2.71414063 -34.3671875 -3.08203125 C-23.68802308 -5.99340438 -9.68698586 -5.48465707 0 0 Z M-33.875 33.125 C-35.56484251 37.44348642 -35.65960983 41.4267052 -35 46 C-32.83701163 50.40608743 -30.60319521 53.1987497 -26 55 C-20.95674616 55.68426057 -17.16923116 55.5739862 -12.5625 53.3125 C-9.20343988 50.28115306 -7.30644369 48.25860352 -6.68359375 43.66796875 C-6.41786348 37.95048191 -7.03152848 34.39749547 -11 30 C-14.83713196 26.61429533 -18.63401462 26.48708828 -23.5625 26.6484375 C-28.22526146 27.32095117 -30.85190292 29.69882331 -33.875 33.125 Z M-93 115 C-93.62261719 115.53882812 -94.24523437 116.07765625 -94.88671875 116.6328125 C-115.32982269 135.59867583 -124.91499977 163.81599005 -126 191 C-126.17210534 198.43894299 -126.17762328 205.88047932 -126.19923019 213.32107735 C-126.21117675 217.0791685 -126.23066756 220.83715262 -126.25234985 224.59519958 C-126.31343866 235.27152393 -126.36808047 245.94782042 -126.40136719 256.62426758 C-126.42190201 263.18281049 -126.45794808 269.74117827 -126.50212479 276.29960442 C-126.51612877 278.7746637 -126.52497123 281.2497586 -126.52817917 283.72485542 C-126.55524664 302.60925936 -127.78939821 320.910448 -132.5625 339.25 C-132.98107856 340.92172243 -133.39905321 342.59359619 -133.81640625 344.265625 C-133.99631104 344.96461914 -134.17621582 345.66361328 -134.36157227 346.38378906 C-135.30290839 350.2412873 -136.13863565 354.12386045 -137 358 C-60.44 358 16.12 358 95 358 C93.68 352.72 92.36 347.44 91 342 C90.2661644 338.83443467 89.54793169 335.6774079 88.875 332.5 C88.71902344 331.80003906 88.56304687 331.10007812 88.40234375 330.37890625 C85.14895163 315.07989703 84.69831285 300.02271968 84.66447449 284.43689728 C84.65606506 280.68307307 84.63545108 276.92947851 84.61193848 273.17572021 C84.56407679 265.20051456 84.53084593 257.22528408 84.5 249.25 C84.46421386 240.00914517 84.42182688 230.7683924 84.36405945 221.5276413 C84.34428972 217.86559914 84.33573317 214.20364875 84.32775879 210.54156494 C84.16212542 173.749154 77.79322431 142.35306488 51.34375 115.28125 C29.32812794 94.30165721 1.88038723 86.25290641 -27.984375 86.69140625 C-52.76390641 87.49106708 -74.60483426 98.77421568 -93 115 Z M-150 388 C-153.96 394.93 -157.92 401.86 -162 409 C-164.475 412.465 -164.475 412.465 -167 416 C-167 416.66 -167 417.32 -167 418 C-70.64 418 25.72 418 125 418 C123.45973997 414.14934993 122.11115941 411.4375406 119.875 408.0625 C115.68975474 401.51461629 111.85557926 394.74726371 108 388 C22.86 388 -62.28 388 -150 388 Z M-62 448 C-60.15354038 457.23229812 -53.67634944 464.69257459 -46 470 C-33.91771845 476.87306106 -21.97253571 479.31172086 -8.2421875 476.12890625 C4.43466438 471.55864641 13.99360897 463.01278206 20 451 C20 450.01 20 449.02 20 448 C-7.06 448 -34.12 448 -62 448 Z " fill="#000000" transform="translate(277,4)"/>
</svg>
