<?xml version="1.0" encoding="UTF-8"?>
<svg version="1.1" xmlns="http://www.w3.org/2000/svg" width="512" height="512">
<path d="M0 0 C3.57159786 0.00544053 7.14318908 0.00780759 10.71479034 0.00987244 C44.70080053 0.0404838 78.55442918 0.39377973 112.45038605 3.08030701 C115.59007633 3.32865923 118.73042607 3.56700938 121.87097931 3.80418396 C155.73411312 6.38534164 155.73411312 6.38534164 172.25818634 8.80613708 C173.47149376 8.98155029 173.47149376 8.98155029 174.70931244 9.1605072 C192.10248264 11.82729847 208.42597627 19.48044952 221.45349884 31.31785583 C222.35713165 32.12867615 223.26076447 32.93949646 224.19178009 33.77488708 C252.50444008 60.52114818 253.5781282 97.48816973 256.51599884 133.88035583 C256.59817657 134.88029572 256.68035431 135.8802356 256.76502228 136.91047668 C257.39999774 144.70845036 257.95286782 152.51012403 258.45349884 160.31785583 C258.49806843 161.01268192 258.54263802 161.70750801 258.5885582 162.42338943 C260.47612104 192.20505752 260.81836082 221.94589336 260.77155685 251.78110504 C260.76591324 255.43579146 260.76309485 259.09047324 260.76047516 262.74516296 C260.72520381 296.59389066 260.48157603 330.32284651 257.71643829 364.07731628 C257.4289464 367.62044702 257.15634981 371.16455608 256.88513947 374.70896912 C256.29277211 382.39374791 255.66277056 390.074981 255.01599884 397.75535583 C254.87020889 399.52166351 254.87020889 399.52166351 254.72147369 401.32365417 C252.00067856 433.67733897 244.25148437 462.46887186 218.45349884 484.31785583 C201.26620336 497.47783237 181.81824721 503.32232052 160.57849884 505.38035583 C158.96022025 505.54523262 157.3419756 505.71044284 155.72376251 505.8759613 C106.86123401 510.78754173 58.00277591 512.71354104 8.90699768 512.63571167 C5.33539983 512.63027114 1.7638086 512.62790408 -1.80779266 512.62583923 C-35.79380285 512.59522787 -69.6474315 512.24193194 -103.54338837 509.55540466 C-106.68307865 509.30705244 -109.82342839 509.06870229 -112.96398163 508.83152771 C-146.82711544 506.25037003 -146.82711544 506.25037003 -163.35118866 503.82957458 C-164.16006027 503.71263245 -164.96893188 503.59569031 -165.80231476 503.47520447 C-183.19548496 500.8084132 -199.51897859 493.15526215 -212.54650116 481.31785583 C-213.45013397 480.50703552 -214.35376678 479.69621521 -215.28478241 478.86082458 C-243.5974424 452.11456349 -244.67113052 415.14754194 -247.60900116 378.75535583 C-247.69117889 377.75541595 -247.77335663 376.75547607 -247.8580246 375.72523499 C-248.49300006 367.92726131 -249.04587014 360.12558764 -249.54650116 352.31785583 C-249.59107075 351.62302975 -249.63564034 350.92820366 -249.68156052 350.21232224 C-251.56912336 320.43065415 -251.91136314 290.68981831 -251.86455917 260.85460663 C-251.85891556 257.19992021 -251.85609717 253.54523843 -251.85347748 249.89054871 C-251.81820613 216.04182101 -251.57457834 182.31286516 -248.80944061 148.55839539 C-248.52194872 145.01526465 -248.24935213 141.47115559 -247.97814178 137.92674255 C-247.38577443 130.24196376 -246.75577288 122.56073067 -246.10900116 114.88035583 C-246.01180786 113.70281738 -245.91461456 112.52527893 -245.81447601 111.3120575 C-243.09368088 78.9583727 -235.34448668 50.16683981 -209.54650116 28.31785583 C-192.16057223 15.00578954 -172.58113688 9.26771331 -151.10900116 7.25535583 C-149.44065816 7.09064681 -147.77236491 6.92543321 -146.10411835 6.75975037 C-140.92056687 6.25257742 -135.73431328 5.77920616 -130.54650116 5.31785583 C-129.73195465 5.24524536 -128.91740814 5.17263489 -128.07817841 5.0978241 C-85.41246929 1.32532474 -42.8252907 -0.06788904 0 0 Z " fill="#CD4D78" transform="translate(251.54650115966797,-0.3178558349609375)"/>
<path d="M0 0 C3.5472941 0.00258894 7.09458603 0.00016852 10.64188027 -0.00138617 C16.58778252 -0.00318856 22.53367221 -0.00085221 28.47957253 0.00395441 C35.29440739 0.00940082 42.10921232 0.00762373 48.92404646 0.00212801 C54.84409697 -0.00244977 60.76413862 -0.00303134 66.68419033 -0.00043333 C70.1899964 0.00110311 73.69578854 0.00139739 77.20159364 -0.00196981 C102.01590001 -0.02234382 102.01590001 -0.02234382 114.15047097 0.53715754 C114.91182949 0.57011864 115.67318801 0.60307974 116.457618 0.63703966 C138.67871165 1.84767947 159.84981505 10.72961536 175.15120339 27.1030755 C191.46694363 46.34159007 196.73958495 67.85569704 197.42854714 92.59916925 C197.44948308 93.32170326 197.47041902 94.04423727 197.49198937 94.78866625 C198.05243701 114.635795 198.02580352 134.48818724 198.00423074 154.34160089 C197.99850081 159.65927643 198.00194326 164.97690228 198.00767159 170.29457617 C198.09458586 265.30707025 198.09458586 265.30707025 171.53401589 292.532763 C152.34242622 310.7601075 130.21956071 315.20632572 104.74495339 316.24760675 C103.76642341 316.28960011 102.78789342 316.33159346 101.77971101 316.37485933 C79.50609303 317.31729526 57.24762487 317.4054713 34.95778298 317.32994318 C30.89564273 317.3190294 26.83353496 317.31952447 22.77138257 317.31994295 C4.70786148 317.31952417 -13.35166498 317.27412414 -31.40739036 316.70073175 C-33.16846374 316.64613039 -33.16846374 316.64613039 -34.96511436 316.59042597 C-60.8896921 315.62836486 -83.4319056 306.72270721 -101.67692161 287.9468255 C-124.11018344 262.18614206 -124.44841184 227.3557193 -124.4606545 195.10869741 C-124.46209506 192.96813382 -124.46639958 190.82759446 -124.47164893 188.68703699 C-124.49003838 181.17156631 -124.49833326 173.6561656 -124.49674582 166.14067316 C-124.49554613 159.21111779 -124.51664352 152.28187467 -124.54823315 145.35239816 C-124.57464618 139.33725357 -124.58510286 133.32220946 -124.58383501 127.30700755 C-124.58333282 123.74337047 -124.58859225 120.18001214 -124.61019111 116.61643457 C-124.79724952 83.44977553 -121.1699353 50.79687391 -97.68864036 25.5093255 C-96.84301536 24.7255755 -95.99739036 23.9418255 -95.12614036 23.1343255 C-94.52801536 22.54264582 -93.92989036 21.95096613 -93.31364036 21.34135675 C-79.03220428 7.76874196 -60.43991954 1.17046592 -40.95109153 0.51762629 C-39.96350695 0.48002758 -38.97592237 0.44242887 -37.95841098 0.40369081 C-25.30949454 -0.02919172 -12.6547651 -0.01218957 0 0 Z " fill="#DC4F73" transform="translate(219.12614035606384,97.86567449569702)"/>
<path d="M0 0 C3.5472941 0.00258894 7.09458603 0.00016852 10.64188027 -0.00138617 C16.58778252 -0.00318856 22.53367221 -0.00085221 28.47957253 0.00395441 C35.29440739 0.00940082 42.10921232 0.00762373 48.92404646 0.00212801 C54.84409697 -0.00244977 60.76413862 -0.00303134 66.68419033 -0.00043333 C70.1899964 0.00110311 73.69578854 0.00139739 77.20159364 -0.00196981 C102.01590001 -0.02234382 102.01590001 -0.02234382 114.15047097 0.53715754 C114.91182949 0.57011864 115.67318801 0.60307974 116.457618 0.63703966 C138.67871165 1.84767947 159.84981505 10.72961536 175.15120339 27.1030755 C191.46694363 46.34159007 196.73958495 67.85569704 197.42854714 92.59916925 C197.44948308 93.32170326 197.47041902 94.04423727 197.49198937 94.78866625 C198.05243701 114.635795 198.02580352 134.48818724 198.00423074 154.34160089 C197.99850081 159.65927643 198.00194326 164.97690228 198.00767159 170.29457617 C198.09458586 265.30707025 198.09458586 265.30707025 171.53401589 292.532763 C152.34242622 310.7601075 130.21956071 315.20632572 104.74495339 316.24760675 C103.76642341 316.28960011 102.78789342 316.33159346 101.77971101 316.37485933 C79.50609303 317.31729526 57.24762487 317.4054713 34.95778298 317.32994318 C30.89564273 317.3190294 26.83353496 317.31952447 22.77138257 317.31994295 C4.70786148 317.31952417 -13.35166498 317.27412414 -31.40739036 316.70073175 C-33.16846374 316.64613039 -33.16846374 316.64613039 -34.96511436 316.59042597 C-60.8896921 315.62836486 -83.4319056 306.72270721 -101.67692161 287.9468255 C-124.11018344 262.18614206 -124.44841184 227.3557193 -124.4606545 195.10869741 C-124.46209506 192.96813382 -124.46639958 190.82759446 -124.47164893 188.68703699 C-124.49003838 181.17156631 -124.49833326 173.6561656 -124.49674582 166.14067316 C-124.49554613 159.21111779 -124.51664352 152.28187467 -124.54823315 145.35239816 C-124.57464618 139.33725357 -124.58510286 133.32220946 -124.58383501 127.30700755 C-124.58333282 123.74337047 -124.58859225 120.18001214 -124.61019111 116.61643457 C-124.79724952 83.44977553 -121.1699353 50.79687391 -97.68864036 25.5093255 C-96.84301536 24.7255755 -95.99739036 23.9418255 -95.12614036 23.1343255 C-94.52801536 22.54264582 -93.92989036 21.95096613 -93.31364036 21.34135675 C-79.03220428 7.76874196 -60.43991954 1.17046592 -40.95109153 0.51762629 C-39.96350695 0.48002758 -38.97592237 0.44242887 -37.95841098 0.40369081 C-25.30949454 -0.02919172 -12.6547651 -0.01218957 0 0 Z M-80.12614036 48.1343255 C-98.54616805 69.30841559 -94.28828523 102.63937696 -94.29339743 128.71534324 C-94.29411835 130.7898255 -94.29627146 132.86430153 -94.29889464 134.93878222 C-94.30806849 142.2081504 -94.31223837 149.47750054 -94.31144309 156.74687433 C-94.31083969 163.47664403 -94.3214632 170.20633428 -94.33718675 176.93608385 C-94.35031127 182.76510044 -94.35562516 188.59409112 -94.35498768 194.42312235 C-94.35473478 197.88289612 -94.35747175 201.34259844 -94.36816573 204.8023572 C-94.37801413 208.65339607 -94.37506994 212.50423027 -94.36906028 216.35527277 C-94.37467978 217.47603205 -94.38029929 218.59679132 -94.38608909 219.751513 C-94.35725508 227.0599465 -93.53827501 233.96688443 -92.12614036 241.1343255 C-91.90313254 242.27127863 -91.68012473 243.40823175 -91.45035911 244.579638 C-89.44965017 252.99979954 -86.83235842 261.2934259 -80.12614036 267.1343255 C-79.32176536 268.279013 -79.32176536 268.279013 -78.50114036 269.4468255 C-67.90204932 281.44053378 -51.56891614 286.66878659 -36.12614036 288.1343255 C-26.01237296 288.65526576 -15.87282743 288.5632288 -5.74842477 288.53730202 C-1.78955638 288.5296005 2.16929321 288.53677993 6.12816262 288.54146051 C12.77325133 288.54688928 19.41823941 288.5398041 26.06331277 288.52543879 C33.6938158 288.50913134 41.32407801 288.5143986 48.95457518 288.530918 C55.55900256 288.54463188 62.16335839 288.54640429 68.76779544 288.53860199 C72.68896669 288.53397759 76.61002564 288.53315289 80.5311892 288.54321146 C119.53512097 288.86467119 119.53512097 288.86467119 152.86995339 270.33354425 C166.579934 256.07394304 169.18401812 236.29236613 169.14851785 217.43998957 C169.15287668 216.00606763 169.15806368 214.57214801 169.16400552 213.13823175 C169.1772831 209.2784603 169.1779867 205.41878744 169.17544222 201.55899763 C169.1743645 198.31902778 169.17927632 195.07907723 169.18404764 191.83911157 C169.19510466 184.18457153 169.1956022 176.53008058 169.18953347 168.87553644 C169.18350094 161.02071555 169.19579512 153.16607412 169.21710354 145.31128383 C169.23481157 138.53036933 169.24070638 131.74951148 169.2374658 124.96857476 C169.23566689 120.93507339 169.23814765 116.90169995 169.25218034 112.86821985 C169.26490456 109.06936717 169.26267942 105.27079071 169.24976945 101.47194147 C169.24633712 99.44262684 169.2574739 97.41330318 169.26933694 95.38402033 C169.20198919 83.38268056 168.09669062 70.47278607 162.24885964 59.7593255 C161.90186013 59.10069513 161.55486062 58.44206476 161.19734597 57.76347589 C154.108826 44.84200807 143.50125176 36.55178954 129.56917214 31.907763 C125.37730296 30.7048788 121.18385308 29.79288729 116.87385964 29.1343255 C115.78706414 28.96418436 114.70026864 28.79404322 113.58053994 28.61874628 C107.40287798 27.85905229 101.19968417 27.9868856 94.98494363 27.98906183 C93.58939931 27.98606509 92.19385581 27.98266138 90.79831338 27.97888422 C87.02516854 27.9700893 83.25204642 27.96770792 79.47889233 27.96706843 C77.1141627 27.96635501 74.74943876 27.9642151 72.38471055 27.96157122 C64.11343039 27.95233047 55.84216628 27.94823446 47.57088113 27.94902277 C39.89680019 27.9496222 32.22278984 27.93909369 24.54872674 27.92327911 C17.93267115 27.9101375 11.31663844 27.90484168 4.70056993 27.90547818 C0.76152176 27.90573136 -3.1774637 27.90298092 -7.11649871 27.89230013 C-10.82905943 27.88250778 -14.54149894 27.88261487 -18.25406432 27.88981676 C-20.23947474 27.89133523 -22.22488545 27.88309306 -24.21027732 27.87437677 C-45.85668672 27.94875692 -64.63504975 32.10374418 -80.12614036 48.1343255 Z " fill="#FEFDFD" transform="translate(219.12614035606384,97.86567449569702)"/>
<path d="M0 0 C1.0621875 0.36351562 2.124375 0.72703125 3.21875 1.1015625 C16.34903607 5.85668947 26.17814625 12.21617525 36 22 C36.80566406 22.77085937 37.61132812 23.54171875 38.44140625 24.3359375 C53.61146213 39.79620315 59.25740839 60.51444075 59.2487793 81.60913086 C59.16619001 88.8062822 58.44033091 95.18863462 56 102 C55.64808594 103.05058594 55.29617188 104.10117187 54.93359375 105.18359375 C50.48943386 117.63604177 44.19223139 127.54419208 35 137 C34.42507813 137.63679687 33.85015625 138.27359375 33.2578125 138.9296875 C21.87011604 151.18916933 2.28770574 160.03943305 -14.39672852 161.16113281 C-35.84354925 161.52395893 -35.84354925 161.52395893 -46 158 C-47.63388672 157.52433594 -47.63388672 157.52433594 -49.30078125 157.0390625 C-68.53282731 151.00631835 -85.56975872 136.85009956 -95 119 C-96.80546504 115.38410986 -98.44903823 111.73146523 -100 108 C-100.29777344 107.32453125 -100.59554687 106.6490625 -100.90234375 105.953125 C-108.06311293 88.71027781 -106.94694525 66.94633525 -100.15429688 49.87451172 C-96.30419221 40.57417928 -91.92900924 32.40087725 -85 25 C-84.17757812 24.08734375 -83.35515625 23.1746875 -82.5078125 22.234375 C-62.28941618 0.78529369 -28.49883453 -10.23665034 0 0 Z " fill="#FEFDFE" transform="translate(279,177)"/>
<path d="M0 0 C6.5086904 5.36123745 12.42523693 11.27938397 18.375 17.2421875 C19.46909274 18.33560504 20.56333376 19.42887423 21.65771484 20.52200317 C23.94205714 22.80487808 26.22459912 25.08953363 28.50585938 27.37548828 C31.41053859 30.28585737 34.31967615 33.19172187 37.23019409 36.09625053 C39.48841399 38.35083303 41.74421733 40.60782138 43.99932861 42.86551285 C45.07015885 43.93700394 46.14171507 45.00777006 47.21405029 46.07775497 C53.02387331 51.87763496 58.67523737 57.74771428 64 64 C64.33 64.33 64.66 64.66 65 65 C65.10942194 66.73061192 65.14908689 68.46568117 65.16113281 70.19970703 C65.17074036 71.31241974 65.1803479 72.42513245 65.19024658 73.57156372 C65.1966214 75.39625687 65.1966214 75.39625687 65.203125 77.2578125 C65.20882507 78.50819305 65.21452515 79.75857361 65.22039795 81.04684448 C65.22987428 83.70851271 65.23675533 86.37006757 65.24023438 89.03173828 C65.24458332 91.73565434 65.25832647 94.43924487 65.28125 97.14306641 C65.46572084 120.57950967 65.33372177 142.40644632 49 161 C39.45036703 170.15889512 27.64081031 176.09050404 14.50692749 177.66183472 C11.64162073 178.04834261 8.80269562 178.54198777 5.95361328 179.03393555 C-1.96371293 180.32227926 -9.87552006 181.16236558 -17.875 181.6875 C-18.59813133 181.73546471 -19.32126266 181.78342941 -20.06630707 181.8328476 C-39.49866417 182.96574871 -54.24451505 180.04732239 -69.17802048 167.03849983 C-75.46940094 161.35422132 -81.3736863 155.35191589 -87.125 149.125 C-87.76258995 148.43558193 -88.4001799 147.74616386 -89.05709076 147.03585434 C-95.48097428 140.04607228 -101.72612993 132.91128443 -107.72314453 125.55126953 C-108.16194883 125.01613582 -108.60075314 124.4810021 -109.05285454 123.92965221 C-112 120.24439585 -112 120.24439585 -112 118 C-108.71049968 119.26030065 -105.653976 120.69263697 -102.5625 122.375 C-86.28981519 130.63350971 -64.33220083 133.3921925 -46.71875 127.9765625 C-45.37296875 127.49316406 -45.37296875 127.49316406 -44 127 C-42.9378125 126.63648438 -41.875625 126.27296875 -40.78125 125.8984375 C-27.6470132 121.14187978 -17.82675141 114.79918689 -8 105 C-7.25621094 104.27941406 -6.51242187 103.55882812 -5.74609375 102.81640625 C8.72455502 87.83602817 14.45687971 66.77151419 14.36132812 46.47021484 C14.0944475 32.69595339 10.30493808 21.56267809 3.8046875 9.5234375 C2.1924827 6.37579956 1.00909715 3.3809956 0 0 Z " fill="#E4387A" transform="translate(323,207)"/>
<path d="M0 0 C10.05458363 9.25889715 17.58771979 22.76435951 18.53125 36.49609375 C18.96526697 53.0068228 13.6874566 68.13374562 2.3125 80.3125 C-9.27786005 91.3011032 -24.46045066 95.883797 -40.09375 95.62890625 C-55.5732865 94.26603401 -67.44239593 86.31006988 -77.69921875 75.1171875 C-87.7354783 62.96917702 -91.04023734 48.83516096 -89.6875 33.3125 C-86.46108724 17.36375511 -78.12063786 4.44994608 -64.6875 -4.6875 C-43.21850326 -16.37445986 -19.76128127 -15.40935866 0 0 Z " fill="#C53B8C" transform="translate(291.6875,214.6875)"/>
<path d="M0 0 C4.95231037 2.81601962 8.99292195 6.49931103 11.1875 11.8125 C12.10423472 18.91160421 11.50446859 24.96798868 7.1875 30.8125 C2.81208084 35.5115803 -1.76026646 37.83585638 -8.125 38.25 C-14.09532808 38.10099015 -18.10760159 35.3732287 -22.3515625 31.35546875 C-26.20444588 27.08575295 -27.56299508 23.05804428 -28.1875 17.4375 C-27.57359048 11.50304126 -25.36207404 6.86352836 -20.8125 2.9375 C-13.979998 -1.90218892 -8.05274633 -2.50823246 0 0 Z " fill="#FDFCFD" transform="translate(350.8125,152.1875)"/>
</svg>
