<?xml version="1.0" encoding="UTF-8"?>
<svg version="1.1" xmlns="http://www.w3.org/2000/svg" width="46" height="46">
<path d="M0 0 C0.72015289 -0.0066568 1.44030579 -0.0133136 2.18228149 -0.02017212 C3.70710697 -0.03030337 5.23197683 -0.03498899 6.75683594 -0.03466797 C9.08603435 -0.0390334 11.4133256 -0.07532139 13.7421875 -0.11328125 C15.22395186 -0.11915101 16.70572521 -0.12311934 18.1875 -0.125 C18.88241547 -0.13937103 19.57733093 -0.15374207 20.29330444 -0.16854858 C23.46834919 -0.13867237 25.46419127 0.16915808 28.16235352 1.88427734 C30.28770976 5.21545065 30.31972275 8.19085283 30.29296875 12.0234375 C30.30226662 13.13271606 30.30226662 13.13271606 30.31175232 14.2644043 C30.31884063 15.82436815 30.31569357 17.3844078 30.30297852 18.94433594 C30.2891035 21.32889098 30.32319825 23.7095259 30.36132812 26.09375 C30.36227932 27.61198012 30.36042046 29.13021515 30.35546875 30.6484375 C30.36872696 31.35895264 30.38198517 32.06946777 30.39564514 32.80151367 C30.32899041 36.35143407 29.96494351 38.05784947 27.63061523 40.78100586 C24.07439695 42.6851298 21.65939281 42.86704581 17.6328125 42.90234375 C16.62909607 42.91164162 16.62909607 42.91164162 15.60510254 42.92112732 C14.19654793 42.9282013 12.78790929 42.92509369 11.37939453 42.91235352 C9.23182599 42.89847152 7.08860816 42.9325973 4.94140625 42.97070312 C3.56770727 42.97165436 2.19400288 42.96979527 0.8203125 42.96484375 C-0.42041016 42.96556885 -1.66113281 42.96629395 -2.93945312 42.96704102 C-7.14222921 42.17148037 -8.60097112 40.59677753 -11.2734375 37.3359375 C-13.46393533 32.95494184 -12.19163708 26.91538113 -12.03149414 22.05029297 C-11.96122272 19.84488895 -11.90692708 17.63946243 -11.85351562 15.43359375 C-11.81087296 14.03642817 -11.76728491 12.63929105 -11.72265625 11.2421875 C-11.68487061 9.96666016 -11.64708496 8.69113281 -11.6081543 7.37695312 C-10.85596444 0.54305311 -5.83762634 0.01858822 0 0 Z " fill="#B43291" transform="translate(13.2734375,1.6640625)"/>
<path d="M0 0 C0.72015289 -0.0066568 1.44030579 -0.0133136 2.18228149 -0.02017212 C3.70710697 -0.03030337 5.23197683 -0.03498899 6.75683594 -0.03466797 C9.08603435 -0.0390334 11.4133256 -0.07532139 13.7421875 -0.11328125 C15.22395186 -0.11915101 16.70572521 -0.12311934 18.1875 -0.125 C18.88241547 -0.13937103 19.57733093 -0.15374207 20.29330444 -0.16854858 C23.46834919 -0.13867237 25.46419127 0.16915808 28.16235352 1.88427734 C30.28770976 5.21545065 30.31972275 8.19085283 30.29296875 12.0234375 C30.30226662 13.13271606 30.30226662 13.13271606 30.31175232 14.2644043 C30.31884063 15.82436815 30.31569357 17.3844078 30.30297852 18.94433594 C30.2891035 21.32889098 30.32319825 23.7095259 30.36132812 26.09375 C30.36227932 27.61198012 30.36042046 29.13021515 30.35546875 30.6484375 C30.36872696 31.35895264 30.38198517 32.06946777 30.39564514 32.80151367 C30.32899041 36.35143407 29.96494351 38.05784947 27.63061523 40.78100586 C24.07439695 42.6851298 21.65939281 42.86704581 17.6328125 42.90234375 C16.62909607 42.91164162 16.62909607 42.91164162 15.60510254 42.92112732 C14.19654793 42.9282013 12.78790929 42.92509369 11.37939453 42.91235352 C9.23182599 42.89847152 7.08860816 42.9325973 4.94140625 42.97070312 C3.56770727 42.97165436 2.19400288 42.96979527 0.8203125 42.96484375 C-0.42041016 42.96556885 -1.66113281 42.96629395 -2.93945312 42.96704102 C-7.14222921 42.17148037 -8.60097112 40.59677753 -11.2734375 37.3359375 C-13.46393533 32.95494184 -12.19163708 26.91538113 -12.03149414 22.05029297 C-11.96122272 19.84488895 -11.90692708 17.63946243 -11.85351562 15.43359375 C-11.81087296 14.03642817 -11.76728491 12.63929105 -11.72265625 11.2421875 C-11.68487061 9.96666016 -11.64708496 8.69113281 -11.6081543 7.37695312 C-10.85596444 0.54305311 -5.83762634 0.01858822 0 0 Z M-3.8671875 8.2421875 C-6.61305002 12.33047169 -6.49134491 15.84658351 -6.5234375 20.6484375 C-6.5440625 21.40833984 -6.5646875 22.16824219 -6.5859375 22.95117188 C-6.61793095 27.55422914 -6.3409882 30.65349489 -3.2734375 34.3359375 C0.33769314 37.14837101 4.786299 36.66712991 9.1640625 36.6484375 C10.29038086 36.67260742 10.29038086 36.67260742 11.43945312 36.69726562 C16.02124369 36.70129534 19.00024189 36.28683879 22.7265625 33.3359375 C24.60287571 29.58331107 23.99776273 25.09091401 24.0390625 20.9609375 C24.08256836 19.52234375 24.08256836 19.52234375 24.12695312 18.0546875 C24.16245908 14.13264464 24.18382332 11.21901428 22.36328125 7.703125 C18.10878163 5.49708816 13.94385826 5.75912943 9.2265625 5.8359375 C8.27652344 5.82046875 7.32648437 5.805 6.34765625 5.7890625 C0.86313192 5.75813119 0.86313192 5.75813119 -3.8671875 8.2421875 Z " fill="#C12D89" transform="translate(13.2734375,1.6640625)"/>
<path d="M0 0 C1.19173828 0.00322266 2.38347656 0.00644531 3.61132812 0.00976562 C4.78373047 -0.00634766 5.95613281 -0.02246094 7.1640625 -0.0390625 C13.47655239 -0.04262686 18.41906297 0.08555821 23.92382812 3.32226562 C24.41882812 4.31226563 24.41882812 4.31226563 24.92382812 5.32226562 C23.60382812 5.32226562 22.28382812 5.32226562 20.92382812 5.32226562 C20.92382812 5.98226563 20.92382812 6.64226563 20.92382812 7.32226562 C21.58382812 7.65226563 22.24382813 7.98226563 22.92382812 8.32226562 C21.60382812 8.32226562 20.28382812 8.32226562 18.92382812 8.32226562 C18.59382813 7.99226562 18.26382813 7.66226562 17.92382812 7.32226562 C16.39775223 7.22321833 14.86717605 7.19146951 13.33789062 7.18945312 C12.4071875 7.18816406 11.47648437 7.186875 10.51757812 7.18554688 C9.53789062 7.18941406 8.55820312 7.19328125 7.54882812 7.19726562 C6.576875 7.19339844 5.60492187 7.18953125 4.60351562 7.18554688 C3.67023437 7.18683594 2.73695312 7.188125 1.77539062 7.18945312 C0.91768066 7.19058105 0.0599707 7.19170898 -0.82373047 7.19287109 C-3.24562123 7.23358287 -3.24562123 7.23358287 -6.07617188 8.32226562 C-6.73617188 13.27226562 -7.39617188 18.22226562 -8.07617188 23.32226562 C-9.72617188 23.65226562 -11.37617188 23.98226563 -13.07617188 24.32226562 C-13.13407541 21.03067246 -13.16973448 17.73920959 -13.20117188 14.44726562 C-13.21792969 13.51011719 -13.2346875 12.57296875 -13.25195312 11.60742188 C-13.26162109 10.26357422 -13.26162109 10.26357422 -13.27148438 8.89257812 C-13.28195801 8.06516113 -13.29243164 7.23774414 -13.30322266 6.38525391 C-12.52696693 -0.66782235 -5.36222148 0.03349485 0 0 Z " fill="#7543BB" transform="translate(15.076171875,1.677734375)"/>
<path d="M0 0 C0.95455078 -0.02449219 1.90910156 -0.04898437 2.89257812 -0.07421875 C6.79956552 -0.09062318 9.69658406 -0.07465961 13.1953125 1.7421875 C15.4026923 5.99297032 15.09910514 10.16271033 15 14.875 C15.00708984 15.82503906 15.01417969 16.77507813 15.02148438 17.75390625 C14.94804679 25.78684807 14.94804679 25.78684807 11.5625 29.375 C7.75657507 30.64364164 4.15379359 30.59820072 0.1875 30.625 C-0.56789063 30.645625 -1.32328125 30.66625 -2.1015625 30.6875 C-6.68929055 30.71958201 -9.76534853 30.42824954 -13.4375 27.375 C-16.27560237 23.75043553 -15.73227557 19.27046878 -15.6875 14.875 C-15.69523438 14.11574219 -15.70296875 13.35648438 -15.7109375 12.57421875 C-15.68592397 5.4328566 -15.68592397 5.4328566 -13.4375 2.375 C-9.07931534 -0.53045644 -5.12712547 0.00689593 0 0 Z M-10.90625 3.83984375 C-13.20441377 7.64471183 -12.98235717 11.07741378 -12.875 15.4375 C-12.88208984 16.25283203 -12.88917969 17.06816406 -12.89648438 17.90820312 C-12.99414362 22.27774855 -12.99414362 22.27774855 -11.18188477 26.10351562 C-7.87563258 28.51344724 -3.88525838 27.84476251 0.0625 27.8125 C0.93003906 27.83248047 1.79757813 27.85246094 2.69140625 27.87304688 C7.47221896 27.93308349 7.47221896 27.93308349 11.625 25.87890625 C12.99124696 22.22988834 13.07555119 18.71857533 13.0625 14.875 C13.10503906 13.73611328 13.10503906 13.73611328 13.1484375 12.57421875 C13.16196177 8.71304023 13.0250984 6.94544889 10.53515625 3.875 C6.80406179 1.99229268 3.5872841 1.78508724 -0.5 1.875 C-1.56057617 1.85179687 -1.56057617 1.85179687 -2.64257812 1.828125 C-5.87312466 1.85239202 -8.11452383 2.18336066 -10.90625 3.83984375 Z " fill="#FCF6F7" transform="translate(22.4375,7.625)"/>
<path d="M0 0 C0.08636719 0.61488281 0.17273438 1.22976562 0.26171875 1.86328125 C0.40222656 2.67152344 0.54273438 3.47976562 0.6875 4.3125 C0.81511719 5.11300781 0.94273437 5.91351563 1.07421875 6.73828125 C2.38623531 9.94358754 3.86150799 10.60606486 7 12 C10.5040761 12.71226053 10.5040761 12.71226053 14.1875 13.0625 C20.78823529 13.78823529 20.78823529 13.78823529 23 16 C24.31747324 16.69748583 25.64914193 17.36959957 27 18 C22.60611793 18.31343353 18.21072901 18.56827842 13.8125 18.8125 C12.56662109 18.90208984 11.32074219 18.99167969 10.03710938 19.08398438 C1.02152645 19.54322318 1.02152645 19.54322318 -1.94384766 17.96630859 C-3.74588884 16.20058058 -4.8773133 14.24537339 -6 12 C-5.96326111 10.14327305 -5.84910761 8.28754532 -5.6875 6.4375 C-5.60886719 5.44621094 -5.53023438 4.45492188 -5.44921875 3.43359375 C-5.30097656 2.63050781 -5.15273437 1.82742187 -5 1 C-3 0 -3 0 0 0 Z " fill="#FEDD77" transform="translate(7,25)"/>
<path d="M0 0 C2.5881216 2.25417042 2.94242643 3.60520979 3.4375 7 C3 10 3 10 1.4375 12.375 C-1.93510779 14.62340519 -4.02512383 14.56783945 -8 14 C-10.4375 12.4375 -10.4375 12.4375 -12 10 C-12.5625 6.5 -12.5625 6.5 -12 3 C-8.33340589 -1.4443565 -5.38867153 -1.59664341 0 0 Z " fill="#FCF3F5" transform="translate(27,16)"/>
<path d="M0 0 C1.32 0 2.64 0 4 0 C4.28875 1.134375 4.5775 2.26875 4.875 3.4375 C5.24625 4.613125 5.6175 5.78875 6 7 C9.05693322 8.52846661 11.62984547 8.23242445 15 8 C17.40083438 6.64114884 17.40083438 6.64114884 19 5 C21.0625 6.75 21.0625 6.75 23 9 C22.80984746 11.21844626 22.58477845 12.41522155 21 14 C17.88354012 14.27742966 14.75235077 14.23176472 11.625 14.25 C10.7484375 14.270625 9.871875 14.29125 8.96875 14.3125 C7.70417969 14.32023437 7.70417969 14.32023437 6.4140625 14.328125 C5.25318115 14.34214355 5.25318115 14.34214355 4.06884766 14.35644531 C1.47184155 13.90900267 0.59809666 13.05514353 -1 11 C-1.328125 9.0625 -1.328125 9.0625 -1.25 7 C-1.23453125 6.319375 -1.2190625 5.63875 -1.203125 4.9375 C-1 3 -1 3 0 0 Z " fill="#F57336" transform="translate(11,21)"/>
<path d="M0 0 C0.09796875 0.60328125 0.1959375 1.2065625 0.296875 1.828125 C1.20946904 6.70578282 1.87595723 9.83823388 6 13 C3.69 13 1.38 13 -1 13 C-1 14.65 -1 16.3 -1 18 C-3.42961107 16.34075341 -4.60409261 15.52297336 -6 13 C-6.24747999 8.91120017 -5.92459615 4.99229597 -5 1 C-3 0 -3 0 0 0 Z " fill="#E77734" transform="translate(7,25)"/>
<path d="M0 0 C3.875 1.875 3.875 1.875 5 3 C5.07325168 5.86267567 5.09238205 8.700719 5.0625 11.5625 C5.05798828 12.36880859 5.05347656 13.17511719 5.04882812 14.00585938 C5.03700518 16.00393756 5.01906914 18.00197783 5 20 C0.24140654 16.63603457 0.24140654 16.63603457 -0.85546875 13.74609375 C-0.96503906 12.98425781 -1.07460938 12.22242188 -1.1875 11.4375 C-1.69649572 8.12063781 -2.05533762 6.91699357 -4 4 C-1.525 4.495 -1.525 4.495 1 5 C1.33 4.01 1.66 3.02 2 2 C1.01 1.67 0.02 1.34 -1 1 C-0.67 0.67 -0.34 0.34 0 0 Z " fill="#D02B79" transform="translate(30,11)"/>
<path d="M0 0 C2.5 0.25 2.5 0.25 4.5 2.25 C4.8125 5.25 4.8125 5.25 4.5 8.25 C1.5 10.25 1.5 10.25 -1.0625 10.0625 C-3.5 9.25 -3.5 9.25 -5.5 6.25 C-5.04523279 2.49817053 -4.00542288 0.40054229 0 0 Z " fill="#E8444A" transform="translate(22.5,17.75)"/>
<path d="M0 0 C2.31 0.33 4.62 0.66 7 1 C6.67 1.99 6.34 2.98 6 4 C5.77820215 5.89212737 5.59385985 7.78884472 5.4375 9.6875 C5.35371094 10.68136719 5.26992187 11.67523438 5.18359375 12.69921875 C5.12300781 13.45847656 5.06242188 14.21773437 5 15 C3.35 15.33 1.7 15.66 0 16 C0 10.72 0 5.44 0 0 Z " fill="#873EB3" transform="translate(2,10)"/>
<path d="M0 0 C1.16660156 0.00322266 2.33320313 0.00644531 3.53515625 0.00976562 C4.75847656 0.01814453 5.98179688 0.02652344 7.2421875 0.03515625 C8.47324219 0.03966797 9.70429688 0.04417969 10.97265625 0.04882812 C14.02088142 0.06064295 17.06901064 0.07711597 20.1171875 0.09765625 C20.1171875 0.42765625 20.1171875 0.75765625 20.1171875 1.09765625 C11.04269565 3.0104726 2.44894039 4.63146415 -6.8828125 4.09765625 C-7.2128125 3.10765625 -7.5428125 2.11765625 -7.8828125 1.09765625 C-5.16879956 -0.25935022 -3.03434934 -0.01472985 0 0 Z " fill="#5357C1" transform="translate(11.8828125,1.90234375)"/>
<path d="M0 0 C0.33 0.66 0.66 1.32 1 2 C-0.32 2 -1.64 2 -3 2 C-3 2.66 -3 3.32 -3 4 C-2.34 4.33 -1.68 4.66 -1 5 C-2.32 5 -3.64 5 -5 5 C-5.33 4.67 -5.66 4.34 -6 4 C-8.85877909 3.76298761 -11.69883297 3.57780818 -14.5625 3.4375 C-15.36880859 3.39431641 -16.17511719 3.35113281 -17.00585938 3.30664062 C-19.00368805 3.20024738 -21.0018207 3.09959112 -23 3 C-16.47039967 -1.35306689 -7.5221584 -1.7031302 0 0 Z " fill="#9D3FB4" transform="translate(39,5)"/>
<path d="M0 0 C-0.33 1.65 -0.66 3.3 -1 5 C-8.92 5 -16.84 5 -25 5 C-25 4.67 -25 4.34 -25 4 C-18.73 3.67 -12.46 3.34 -6 3 C-8.35953094 0.64046906 -9.77895617 0.50858587 -13 0 C-13 -0.33 -13 -0.66 -13 -1 C-4.57142857 -2.42857143 -4.57142857 -2.42857143 0 0 Z " fill="#A94931" transform="translate(36,39)"/>
<path d="M0 0 C0 0.66 0 1.32 0 2 C-1.6396875 2.37125 -1.6396875 2.37125 -3.3125 2.75 C-7.24585652 4.08334119 -7.75235309 4.78907585 -10 8 C-11.32 8 -12.64 8 -14 8 C-14.33 8.99 -14.66 9.98 -15 11 C-15 8.03 -15 5.06 -15 2 C-14.34 2.66 -13.68 3.32 -13 4 C-12.46375 3.54625 -11.9275 3.0925 -11.375 2.625 C-7.5585741 0.01376122 -4.48559567 -1.49519856 0 0 Z " fill="#BF2F85" transform="translate(25,13)"/>
<path d="M0 0 C5.44847068 -0.21793883 9.87104699 -0.09820805 15 2 C15.94875 2.37125 16.8975 2.7425 17.875 3.125 C18.57625 3.41375 19.2775 3.7025 20 4 C20 4.33 20 4.66 20 5 C18.39592672 5.02708567 16.7917215 5.04643483 15.1875 5.0625 C13.84751953 5.07990234 13.84751953 5.07990234 12.48046875 5.09765625 C10 5 10 5 7 4 C7 3.34 7 2.68 7 2 C4.69 1.67 2.38 1.34 0 1 C0 0.67 0 0.34 0 0 Z " fill="#FDBA54" transform="translate(14,38)"/>
<path d="M0 0 C1.65 1.32 3.3 2.64 5 4 C4.6875 5.9375 4.6875 5.9375 4 8 C1 9 1 9 -2 8 C-2.6875 5.6875 -2.6875 5.6875 -3 3 C-1.5625 1.1875 -1.5625 1.1875 0 0 Z " fill="#EF514A" transform="translate(29,26)"/>
<path d="M0 0 C5.28 0 10.56 0 16 0 C16 0.66 16 1.32 16 2 C16.66 2.33 17.32 2.66 18 3 C17.67 4.32 17.34 5.64 17 7 C14.03 6.505 14.03 6.505 11 6 C11 4.68 11 3.36 11 2 C7.37 1.67 3.74 1.34 0 1 C0 0.67 0 0.34 0 0 Z " fill="#CC73B5" transform="translate(14,10)"/>
<path d="M0 0 C0 2.64 0 5.28 0 8 C-1.65 8.33 -3.3 8.66 -5 9 C-5 6.36 -5 3.72 -5 1 C-2 0 -2 0 0 0 Z " fill="#AD318D" transform="translate(7,17)"/>
<path d="M0 0 C2.6201785 3.93026776 2.96025731 7.32625942 3 12 C2.0625 15.5625 2.0625 15.5625 1 18 C0.67 18 0.34 18 0 18 C0 12.06 0 6.12 0 0 Z " fill="#DC5294" transform="translate(37,15)"/>
<path d="M0 0 C5.53846154 -0.36923077 5.53846154 -0.36923077 7.875 1.5 C8.24625 1.995 8.6175 2.49 9 3 C6.69 3 4.38 3 2 3 C2 4.65 2 6.3 2 8 C0.68 6.68 -0.64 5.36 -2 4 C-1.34 2.68 -0.68 1.36 0 0 Z " fill="#D38C36" transform="translate(4,35)"/>
<path d="M0 0 C2.375 -0.125 2.375 -0.125 5 0 C7 2 7 2 7.125 4.625 C7.08375 5.40875 7.0425 6.1925 7 7 C6.01 6.34 5.02 5.68 4 5 C2.0103005 4.60986284 0.00980131 4.26797351 -2 4 C-1.34 2.68 -0.68 1.36 0 0 Z " fill="#D32367" transform="translate(20,18)"/>
<path d="M0 0 C2.31 0 4.62 0 7 0 C7 0.99 7 1.98 7 3 C5.02 3.99 3.04 4.98 1 6 C-0.0625 4.125 -0.0625 4.125 -1 2 C-0.67 1.34 -0.34 0.68 0 0 Z " fill="#F0BE5E" transform="translate(6,38)"/>
<path d="M0 0 C1.32 0 2.64 0 4 0 C4 1.65 4 3.3 4 5 C2.68 5 1.36 5 0 5 C-0.33 6.32 -0.66 7.64 -1 9 C-0.67 6.03 -0.34 3.06 0 0 Z " fill="#E14B4D" transform="translate(11,21)"/>
<path d="M0 0 C0.33 0.66 0.66 1.32 1 2 C3.97 2 6.94 2 10 2 C10 2.66 10 3.32 10 4 C6.37 4 2.74 4 -1 4 C-1.33 3.01 -1.66 2.02 -2 1 C-1.34 0.67 -0.68 0.34 0 0 Z " fill="#4C4DB2" transform="translate(6,2)"/>
<path d="M0 0 C2.1640625 -0.29296875 2.1640625 -0.29296875 4.625 -0.1875 C5.44226563 -0.16042969 6.25953125 -0.13335937 7.1015625 -0.10546875 C8.04128906 -0.05326172 8.04128906 -0.05326172 9 0 C9 0.33 9 0.66 9 1 C8.0925 1.0825 7.185 1.165 6.25 1.25 C2.59922161 2.09248732 1.36615417 3.17881618 -1 6 C-1.33 5.01 -1.66 4.02 -2 3 C-1.34 2.01 -0.68 1.02 0 0 Z " fill="#A63593" transform="translate(12,11)"/>
<path d="M0 0 C6.4 -0.49230769 6.4 -0.49230769 9.4375 2 C10.2109375 2.99 10.2109375 2.99 11 4 C8 5 8 5 5.5 4.25 C3.12976686 3.06488343 1.71610694 1.98707119 0 0 Z " fill="#5B277F" transform="translate(32,2)"/>
<path d="M0 0 C0.103125 0.639375 0.20625 1.27875 0.3125 1.9375 C0.539375 2.618125 0.76625 3.29875 1 4 C1.99 4.33 2.98 4.66 4 5 C1.36 5 -1.28 5 -4 5 C-3.34 4.67 -2.68 4.34 -2 4 C-2 3.34 -2 2.68 -2 2 C-2.99 1.67 -3.98 1.34 -5 1 C-2 0 -2 0 0 0 Z " fill="#F55A26" transform="translate(26,30)"/>
<path d="M0 0 C1.50433594 0.29197266 1.50433594 0.29197266 3.0390625 0.58984375 C4.19535156 0.82380859 4.19535156 0.82380859 5.375 1.0625 C5.375 1.3925 5.375 1.7225 5.375 2.0625 C-0.565 2.5575 -0.565 2.5575 -6.625 3.0625 C-6.955 2.0725 -7.285 1.0825 -7.625 0.0625 C-4.81015955 -1.34492022 -3.05563887 -0.60402164 0 0 Z " fill="#5F40B9" transform="translate(9.625,5.9375)"/>
<path d="M0 0 C3.55780196 0.60990891 6.6828589 1.5783681 10 3 C10 3.33 10 3.66 10 4 C7.03 3.67 4.06 3.34 1 3 C0.67 2.01 0.34 1.02 0 0 Z " fill="#FB9C53" transform="translate(24,39)"/>
<path d="M0 0 C2.3431213 0.25561323 4.67843403 0.59270772 7 1 C7.33 1.66 7.66 2.32 8 3 C5.03 3 2.06 3 -1 3 C-0.67 2.01 -0.34 1.02 0 0 Z " fill="#FA8729" transform="translate(14,32)"/>
<path d="M0 0 C1.65 1.32 3.3 2.64 5 4 C4.67 5.32 4.34 6.64 4 8 C2 7 2 7 1 4 C0.34 3.34 -0.32 2.68 -1 2 C-0.67 1.34 -0.34 0.68 0 0 Z " fill="#E53056" transform="translate(29,26)"/>
<path d="M0 0 C0 1.32 0 2.64 0 4 C-1.65 4.33 -3.3 4.66 -5 5 C-5 3.68 -5 2.36 -5 1 C-3 0 -3 0 0 0 Z " fill="#E25A4E" transform="translate(7,25)"/>
<path d="M0 0 C0.66 1.32 1.32 2.64 2 4 C3.32 3.67 4.64 3.34 6 3 C5.67 3.99 5.34 4.98 5 6 C3.68 6 2.36 6 1 6 C0.67 6.99 0.34 7.98 0 9 C0 6.03 0 3.06 0 0 Z " fill="#C0226A" transform="translate(10,15)"/>
<path d="M0 0 C0.66 0.33 1.32 0.66 2 1 C2.59355614 3.64860427 2.74209269 6.29197322 3 9 C2.34 8.67 1.68 8.34 1 8 C1 6.68 1 5.36 1 4 C-0.32 3.34 -1.64 2.68 -3 2 C-2.01 1.34 -1.02 0.68 0 0 Z " fill="#D13150" transform="translate(35,35)"/>
<path d="M0 0 C6.52307692 0.49230769 6.52307692 0.49230769 8.9375 3.0625 C9.288125 3.701875 9.63875 4.34125 10 5 C9.01 5 8.02 5 7 5 C7 4.34 7 3.68 7 3 C4.69 3 2.38 3 0 3 C0 2.01 0 1.02 0 0 Z " fill="#E34468" transform="translate(17,21)"/>
<path d="M0 0 C0.33 0.66 0.66 1.32 1 2 C0 5 0 5 -2.0625 6.1875 C-2.701875 6.455625 -3.34125 6.72375 -4 7 C-3.6875 4.625 -3.6875 4.625 -3 2 C-2.01 1.34 -1.02 0.68 0 0 Z " fill="#91349B" transform="translate(7,12)"/>
<path d="M0 0 C0.33 1.32 0.66 2.64 1 4 C-0.65 4.33 -2.3 4.66 -4 5 C-3.6875 3.0625 -3.6875 3.0625 -3 1 C-2.01 0.67 -1.02 0.34 0 0 Z " fill="#CB416D" transform="translate(6,21)"/>
<path d="" fill="#000000" transform="translate(0,0)"/>
</svg>
