<?xml version="1.0" encoding="UTF-8"?>
<svg version="1.1" xmlns="http://www.w3.org/2000/svg" width="512" height="512">
<path d="M0 0 C17.57146559 13.79729056 41.34852857 37.24383956 46.16137695 60.02783203 C46.82137695 60.02783203 47.48137695 60.02783203 48.16137695 60.02783203 C48.39856445 59.20412109 48.63575195 58.38041016 48.88012695 57.53173828 C50.40048205 53.37393792 52.40652481 49.76250132 54.66137695 45.96533203 C55.10280029 45.22017334 55.54422363 44.47501465 55.99902344 43.70727539 C62.55105361 32.85536653 70.46340888 23.23917091 79.16137695 14.02783203 C80.3544043 12.72072266 80.3544043 12.72072266 81.5715332 11.38720703 C100.19178572 -8.27218476 127.1619875 -22.72022112 154.55444336 -24.14916992 C171.46933021 -24.428672 187.75022762 -24.68041142 204.16137695 -19.97216797 C204.82685547 -19.79024902 205.49233398 -19.60833008 206.17797852 -19.42089844 C238.47179188 -10.41821354 267.19489698 12.66961281 283.78637695 41.65283203 C297.25082652 66.05899314 303.6208455 91.44491329 303.47387695 119.27783203 C303.47105713 120.05051422 303.4682373 120.82319641 303.46533203 121.61929321 C303.32118778 147.9198405 297.17419692 171.9823685 284.16137695 195.02783203 C283.82025879 195.64384277 283.47914063 196.25985352 283.12768555 196.89453125 C268.79798948 222.58386527 248.22309051 244.16091131 227.52636719 264.79321289 C225.46277634 266.8514036 223.4046402 268.91494183 221.34692383 270.97900391 C220.01065606 272.31461137 218.67407839 273.64990887 217.3371582 274.98486328 C216.73486893 275.58917679 216.13257965 276.1934903 215.51203918 276.81611633 C211.80878068 280.49940464 207.98734869 283.9952146 204.02836609 287.40238953 C200.82563893 290.19075544 197.75110173 293.11560809 194.66137695 296.02783203 C190.1836855 300.2279738 185.69162922 304.3905304 181.0402832 308.39892578 C177.02561526 311.87941753 173.10464602 315.46694057 169.16137695 319.02783203 C163.87878637 323.7981714 158.58203561 328.5467761 153.21606445 333.22314453 C150.02601127 336.02505436 146.87591847 338.87080676 143.72387695 341.71533203 C141.24872365 343.94900697 138.76769384 346.17600919 136.28637695 348.40283203 C131.05323771 353.11265735 125.86472142 357.87041404 120.68041992 362.63378906 C119.20847779 363.98460706 117.73379959 365.33244176 116.2590332 366.68017578 C113.78737244 368.93950596 111.31978401 371.20314263 108.85523987 373.4702301 C107.75089123 374.4857406 106.64581309 375.50045852 105.53990173 376.51426697 C94.09568586 387.02078924 83.14488097 397.98139034 72.2409668 409.04418945 C70.01828202 411.29701313 67.7894588 413.54361796 65.55981445 415.78955078 C64.8889682 416.47385666 64.21812195 417.15816254 63.52694702 417.86320496 C58.56703315 422.84963883 54.68771502 426.44605605 47.34887695 426.59033203 C45.88514648 426.65414062 45.88514648 426.65414062 44.3918457 426.71923828 C36.05841972 424.93566343 29.6661696 416.78857706 23.91137695 410.93798828 C22.62505371 409.64386269 22.62505371 409.64386269 21.31274414 408.32359314 C18.59077656 405.58392893 15.87562658 402.83764107 13.16137695 400.09033203 C10.44627209 397.34746783 7.72966241 394.60613779 5.01000977 391.86778259 C3.3242219 390.16988862 1.64111219 388.46932979 -0.03881836 386.76564026 C-4.26568569 382.50312577 -8.57076126 378.41624558 -13.12359619 374.50334167 C-15.13114296 372.77616486 -17.06725901 370.98458347 -18.98706055 369.16064453 C-19.67711182 368.50733154 -20.36716309 367.85401855 -21.078125 367.1809082 C-22.13519653 366.1770105 -22.13519653 366.1770105 -23.21362305 365.15283203 C-28.56607768 360.09198232 -33.94379577 355.07296774 -39.4440918 350.17236328 C-42.30757882 347.60783738 -45.1355042 345.00621134 -47.96362305 342.40283203 C-51.88095387 338.80110677 -55.83504471 335.24994546 -59.85424805 331.76220703 C-64.76397025 327.47103251 -69.57737122 323.06981095 -74.41674805 318.69970703 C-78.20337263 315.28477565 -81.99445922 311.87796677 -85.83862305 308.52783203 C-89.69250578 305.1692274 -93.49360545 301.75436537 -97.2878418 298.32861328 C-98.91189642 296.86373093 -100.5391609 295.40239372 -102.1706543 293.94580078 C-114.54017667 282.88912987 -126.56304721 271.49020871 -138.29321289 259.75854492 C-140.22874083 257.82523154 -142.17219978 255.90012312 -144.1159668 253.97509766 C-151.15939422 246.96287271 -157.68629398 239.84333848 -163.83862305 232.02783203 C-164.71193253 230.99868094 -165.59186846 229.97504848 -166.4831543 228.96142578 C-173.79303067 220.54518974 -179.88310602 211.43353013 -185.83862305 202.02783203 C-186.22824219 201.41681641 -186.61786133 200.80580078 -187.01928711 200.17626953 C-195.61991417 186.51507406 -201.94527898 170.67644202 -205.83862305 155.02783203 C-206.13639648 153.85220703 -206.43416992 152.67658203 -206.7409668 151.46533203 C-211.44042306 130.2427455 -210.99618788 104.09973325 -205.83862305 83.02783203 C-205.67233398 82.32674316 -205.50604492 81.6256543 -205.3347168 80.90332031 C-196.36007481 44.2651754 -174.04177802 13.97367756 -142.40893555 -6.18701172 C-98.4921805 -32.60806181 -40.95896703 -31.02398683 0 0 Z " fill="#000000" transform="translate(208.838623046875,54.97216796875)"/>
</svg>
