<?xml version="1.0" encoding="UTF-8"?>
<svg version="1.1" xmlns="http://www.w3.org/2000/svg" width="512" height="512">
<path d="M0 0 C1.41739975 -0.01058945 1.41739975 -0.01058945 2.86343384 -0.02139282 C42.2380124 -0.24888877 42.2380124 -0.24888877 58.76953125 3.203125 C59.72843262 3.39648438 60.68733398 3.58984375 61.67529297 3.7890625 C103.46013418 12.43282215 141.47582259 29.51932497 174.76953125 56.203125 C175.59952637 56.86538086 175.59952637 56.86538086 176.44628906 57.54101562 C179.58815187 60.05529777 182.68868583 62.61460579 185.76953125 65.203125 C186.92775391 66.15832031 186.92775391 66.15832031 188.109375 67.1328125 C188.82222656 67.73351562 189.53507812 68.33421875 190.26953125 68.953125 C190.87796875 69.46359375 191.48640625 69.9740625 192.11328125 70.5 C193.76953125 72.203125 193.76953125 72.203125 195.20703125 74.62890625 C196.93177486 77.47042134 198.84667475 79.37116363 201.26953125 81.640625 C206.87699861 87.14229109 211.65194378 93.0988405 216.37841797 99.36328125 C217.74754866 101.1740515 219.13469255 102.96987665 220.5234375 104.765625 C251.72877917 145.62381903 268.50664596 197.61005731 268.16064453 248.88037109 C268.14453031 251.70329039 268.16063711 254.52477893 268.1796875 257.34765625 C268.19484126 270.50652606 266.90759764 283.22645383 264.76953125 296.203125 C264.58680664 297.32525391 264.40408203 298.44738281 264.21582031 299.60351562 C255.30600929 350.0261784 230.14027441 396.51052286 194.76953125 433.203125 C194.23537598 433.75919434 193.7012207 434.31526367 193.15087891 434.88818359 C186.09029191 442.20055973 178.85107463 449.00908303 170.76953125 455.203125 C170.2369873 455.61739746 169.70444336 456.03166992 169.15576172 456.45849609 C113.9829683 499.19486404 45.36896348 514.3750861 -23.23681641 505.82861328 C-51.04123897 502.07248939 -80.36464588 494.75641911 -104.50585938 480.01025391 C-111.83383522 477.83943956 -120.44002375 480.8095513 -127.61108398 482.71582031 C-128.59639603 482.97128128 -129.58170807 483.22674225 -130.59687805 483.48994446 C-133.82950364 484.32994764 -137.05924754 485.1805101 -140.2890625 486.03125 C-142.56078979 486.62383781 -144.83268932 487.21576571 -147.10475159 487.80706787 C-153.07827766 489.36358281 -159.04940813 490.92910077 -165.02008057 492.496521 C-171.03864343 494.0747989 -177.05946113 495.64442372 -183.08007812 497.21484375 C-190.92747393 499.26287372 -198.77438332 501.31273341 -206.61955357 503.36927414 C-208.63524516 503.89761621 -210.65108164 504.42540589 -212.66707516 504.95259476 C-217.38933896 506.18879687 -222.1079773 507.43638569 -226.82034302 508.70983887 C-227.69603723 508.94497066 -228.57173143 509.18010246 -229.47396183 509.42235947 C-231.10341011 509.86049198 -232.73181478 510.30253293 -234.35891628 510.74930191 C-237.80659573 511.67346056 -240.6319755 512.203125 -244.23046875 512.203125 C-243.6384561 506.55050065 -242.59750595 501.29625455 -241.05664062 495.83227539 C-240.83686554 495.0355542 -240.61709045 494.23883301 -240.39065552 493.41796875 C-239.66546067 490.79407649 -238.93235322 488.17246511 -238.19921875 485.55078125 C-237.68361205 483.69085092 -237.16852626 481.83077612 -236.65393066 479.9705658 C-235.29451285 475.06147926 -233.9284859 470.15425657 -232.56091309 465.24743652 C-231.2049936 460.37884246 -229.85454977 455.5087317 -228.50390625 450.63867188 C-228.23996567 449.68750174 -227.97602509 448.7363316 -227.7040863 447.75633812 C-226.38606556 443.00629181 -225.06939959 438.25587606 -223.75512695 433.50479126 C-223.24047544 431.64526234 -222.72574642 429.78575488 -222.2109375 427.92626953 C-221.96058243 427.02182917 -221.71022736 426.1173888 -221.45228577 425.18554115 C-220.01664147 420.00847774 -218.5625189 414.83713617 -217.08892059 409.67075062 C-216.21548437 406.60290704 -215.35213395 403.53228003 -214.49055481 400.46108818 C-214.09382799 399.05714185 -213.6922682 397.65455053 -213.28544617 396.25349617 C-212.73195309 394.34629376 -212.19658354 392.43385963 -211.66210938 390.52124023 C-211.20801697 388.93266457 -211.20801697 388.93266457 -210.74475098 387.31199646 C-209.64892586 380.68765817 -211.70637196 375.62277238 -214.79296875 369.890625 C-215.5262758 368.46760488 -216.2566465 367.04306853 -216.984375 365.6171875 C-217.35836426 364.88661133 -217.73235352 364.15603516 -218.11767578 363.40332031 C-247.54057917 305.22885665 -250.32330386 236.16501455 -230.37207031 174.55224609 C-219.2175674 141.8960522 -201.95021426 112.08485253 -179.23046875 86.203125 C-178.12251953 84.92695313 -178.12251953 84.92695313 -176.9921875 83.625 C-167.55072345 72.92352338 -157.54503306 62.92138772 -146.23046875 54.203125 C-145.6389502 53.7405127 -145.04743164 53.27790039 -144.43798828 52.80126953 C-135.09719307 45.51037197 -125.59285574 38.95050601 -115.23046875 33.203125 C-114.41255859 32.74437988 -113.59464844 32.28563477 -112.75195312 31.81298828 C-78.48762476 12.75141309 -39.49447704 0.19715432 0 0 Z " fill="#4CAF50" transform="translate(244.23046875,-0.203125)"/>
<path d="M0 0 C1.41739975 -0.01058945 1.41739975 -0.01058945 2.86343384 -0.02139282 C42.2380124 -0.24888877 42.2380124 -0.24888877 58.76953125 3.203125 C59.72843262 3.39648438 60.68733398 3.58984375 61.67529297 3.7890625 C103.46013418 12.43282215 141.47582259 29.51932497 174.76953125 56.203125 C175.59952637 56.86538086 175.59952637 56.86538086 176.44628906 57.54101562 C179.58815187 60.05529777 182.68868583 62.61460579 185.76953125 65.203125 C186.92775391 66.15832031 186.92775391 66.15832031 188.109375 67.1328125 C188.82222656 67.73351562 189.53507812 68.33421875 190.26953125 68.953125 C190.87796875 69.46359375 191.48640625 69.9740625 192.11328125 70.5 C193.76953125 72.203125 193.76953125 72.203125 195.20703125 74.62890625 C196.93177486 77.47042134 198.84667475 79.37116363 201.26953125 81.640625 C206.87699861 87.14229109 211.65194378 93.0988405 216.37841797 99.36328125 C217.74754866 101.1740515 219.13469255 102.96987665 220.5234375 104.765625 C251.72877917 145.62381903 268.50664596 197.61005731 268.16064453 248.88037109 C268.14453031 251.70329039 268.16063711 254.52477893 268.1796875 257.34765625 C268.19484126 270.50652606 266.90759764 283.22645383 264.76953125 296.203125 C264.58680664 297.32525391 264.40408203 298.44738281 264.21582031 299.60351562 C255.30600929 350.0261784 230.14027441 396.51052286 194.76953125 433.203125 C194.23537598 433.75919434 193.7012207 434.31526367 193.15087891 434.88818359 C186.09029191 442.20055973 178.85107463 449.00908303 170.76953125 455.203125 C170.2369873 455.61739746 169.70444336 456.03166992 169.15576172 456.45849609 C113.9829683 499.19486404 45.36896348 514.3750861 -23.23681641 505.82861328 C-51.04123897 502.07248939 -80.36464588 494.75641911 -104.50585938 480.01025391 C-111.83383522 477.83943956 -120.44002375 480.8095513 -127.61108398 482.71582031 C-128.59639603 482.97128128 -129.58170807 483.22674225 -130.59687805 483.48994446 C-133.82950364 484.32994764 -137.05924754 485.1805101 -140.2890625 486.03125 C-142.56078979 486.62383781 -144.83268932 487.21576571 -147.10475159 487.80706787 C-153.07827766 489.36358281 -159.04940813 490.92910077 -165.02008057 492.496521 C-171.03864343 494.0747989 -177.05946113 495.64442372 -183.08007812 497.21484375 C-190.92747393 499.26287372 -198.77438332 501.31273341 -206.61955357 503.36927414 C-208.63524516 503.89761621 -210.65108164 504.42540589 -212.66707516 504.95259476 C-217.38933896 506.18879687 -222.1079773 507.43638569 -226.82034302 508.70983887 C-227.69603723 508.94497066 -228.57173143 509.18010246 -229.47396183 509.42235947 C-231.10341011 509.86049198 -232.73181478 510.30253293 -234.35891628 510.74930191 C-237.80659573 511.67346056 -240.6319755 512.203125 -244.23046875 512.203125 C-243.6384561 506.55050065 -242.59750595 501.29625455 -241.05664062 495.83227539 C-240.83686554 495.0355542 -240.61709045 494.23883301 -240.39065552 493.41796875 C-239.66546067 490.79407649 -238.93235322 488.17246511 -238.19921875 485.55078125 C-237.68361205 483.69085092 -237.16852626 481.83077612 -236.65393066 479.9705658 C-235.29451285 475.06147926 -233.9284859 470.15425657 -232.56091309 465.24743652 C-231.2049936 460.37884246 -229.85454977 455.5087317 -228.50390625 450.63867188 C-228.23996567 449.68750174 -227.97602509 448.7363316 -227.7040863 447.75633812 C-226.38606556 443.00629181 -225.06939959 438.25587606 -223.75512695 433.50479126 C-223.24047544 431.64526234 -222.72574642 429.78575488 -222.2109375 427.92626953 C-221.96058243 427.02182917 -221.71022736 426.1173888 -221.45228577 425.18554115 C-220.01664147 420.00847774 -218.5625189 414.83713617 -217.08892059 409.67075062 C-216.21548437 406.60290704 -215.35213395 403.53228003 -214.49055481 400.46108818 C-214.09382799 399.05714185 -213.6922682 397.65455053 -213.28544617 396.25349617 C-212.73195309 394.34629376 -212.19658354 392.43385963 -211.66210938 390.52124023 C-211.20801697 388.93266457 -211.20801697 388.93266457 -210.74475098 387.31199646 C-209.64892586 380.68765817 -211.70637196 375.62277238 -214.79296875 369.890625 C-215.5262758 368.46760488 -216.2566465 367.04306853 -216.984375 365.6171875 C-217.35836426 364.88661133 -217.73235352 364.15603516 -218.11767578 363.40332031 C-247.54057917 305.22885665 -250.32330386 236.16501455 -230.37207031 174.55224609 C-219.2175674 141.8960522 -201.95021426 112.08485253 -179.23046875 86.203125 C-178.12251953 84.92695313 -178.12251953 84.92695313 -176.9921875 83.625 C-167.55072345 72.92352338 -157.54503306 62.92138772 -146.23046875 54.203125 C-145.6389502 53.7405127 -145.04743164 53.27790039 -144.43798828 52.80126953 C-135.09719307 45.51037197 -125.59285574 38.95050601 -115.23046875 33.203125 C-114.41255859 32.74437988 -113.59464844 32.28563477 -112.75195312 31.81298828 C-78.48762476 12.75141309 -39.49447704 0.19715432 0 0 Z M-125.23046875 93.203125 C-126.41576172 94.2240625 -126.41576172 94.2240625 -127.625 95.265625 C-139.70432723 105.8813827 -150.79115236 117.16822167 -160.23046875 130.203125 C-160.64748047 130.77579102 -161.06449219 131.34845703 -161.49414062 131.93847656 C-193.5969822 176.5869684 -204.61146262 233.04591304 -196.89355469 287.10693359 C-192.22074614 314.60052342 -181.85126087 341.01179691 -167.39453125 364.796875 C-167.02618164 365.40402344 -166.65783203 366.01117188 -166.27832031 366.63671875 C-165.20268764 368.35569836 -165.20268764 368.35569836 -163.31640625 370.109375 C-161.41828938 373.76905358 -163.16606707 377.44014398 -164.23046875 381.203125 C-164.76202012 383.31176969 -165.29046445 385.42119916 -165.81640625 387.53125 C-166.41109823 389.83897065 -167.00748673 392.14625469 -167.60546875 394.453125 C-167.89679688 395.59136719 -168.188125 396.72960937 -168.48828125 397.90234375 C-170.24419265 404.68724703 -172.17534894 411.38935572 -174.26660156 418.078125 C-175.74915602 422.88478585 -177.09310706 427.72603414 -178.41796875 432.578125 C-178.80758789 433.97611328 -178.80758789 433.97611328 -179.20507812 435.40234375 C-180.55469362 440.33349701 -181.64958173 445.12211327 -182.23046875 450.203125 C-175.52640213 449.61838897 -169.33865604 448.35061781 -162.85546875 446.578125 C-160.82304687 446.03466908 -158.79048888 445.49172198 -156.7578125 444.94921875 C-155.69675293 444.6641748 -154.63569336 444.37913086 -153.54248047 444.08544922 C-146.70008752 442.26262686 -139.83694184 440.51866622 -132.97851562 438.75732422 C-127.86524067 437.43602433 -122.76618162 436.08977449 -117.6953125 434.61328125 C-116.86813721 434.37359619 -116.04096191 434.13391113 -115.1887207 433.88696289 C-113.68812514 433.44716294 -112.19025812 432.99788364 -110.69604492 432.53686523 C-104.92035961 430.84180404 -102.12149349 431.20750483 -96.83984375 433.98828125 C-95.55083664 434.7430598 -94.26452206 435.50244934 -92.98046875 436.265625 C-60.82050744 454.77500853 -24.89205047 464.64654811 12.26953125 464.640625 C13.11525696 464.64202484 13.96098267 464.64342468 14.83233643 464.64486694 C36.99739216 464.61494581 58.78214711 461.57955076 79.76953125 454.203125 C80.5167041 453.94805176 81.26387695 453.69297852 82.03369141 453.43017578 C111.29952853 443.38674081 137.00462555 428.23820406 159.27880859 406.64697266 C160.71915795 405.25191434 162.17572858 403.87366422 163.6328125 402.49609375 C187.46499611 379.47292344 204.12701424 349.33184303 214.76953125 318.203125 C215.01251953 317.5225 215.25550781 316.841875 215.50585938 316.140625 C226.8559097 284.06298991 229.54048371 243.43618447 221.76953125 210.203125 C221.60324219 209.45015137 221.43695313 208.69717773 221.265625 207.92138672 C215.36045981 181.6379339 204.74679597 155.99325636 188.76953125 134.203125 C188.0528125 133.20410156 187.33609375 132.20507812 186.59765625 131.17578125 C182.32119725 125.32882955 177.80278752 119.83751766 172.89453125 114.51171875 C170.93315231 112.38088244 169.0325838 110.21132896 167.14453125 108.015625 C160.63391656 100.58341645 153.50661164 94.346387 145.76953125 88.203125 C144.30193359 87.01009766 144.30193359 87.01009766 142.8046875 85.79296875 C117.30161911 65.49985885 85.97747137 50.6620979 53.76953125 45.203125 C52.43983198 44.92578097 51.11042226 44.64704634 49.78125 44.3671875 C-10.93136255 32.52832838 -79.02117675 52.72348757 -125.23046875 93.203125 Z " fill="#EBEEF0" transform="translate(244.23046875,-0.203125)"/>
<path d="M0 0 C1.58748047 -0.03577148 1.58748047 -0.03577148 3.20703125 -0.07226562 C11.81928696 -0.05605686 11.81928696 -0.05605686 15.3671875 2.5859375 C18.35688341 6.13445508 20.102695 9.49100661 21.875 13.75 C22.23529297 14.58063965 22.59558594 15.4112793 22.96679688 16.26708984 C24.29401098 19.35575026 25.58680995 22.45735271 26.875 25.5625 C27.15569336 26.23786804 27.43638672 26.91323608 27.72558594 27.60906982 C31.46733001 36.61427776 35.18288871 45.6300647 38.85705566 54.66307068 C40.27813591 58.15200268 40.27813591 58.15200268 41.875 61.5625 C42.60615137 70.23882954 37.11042954 76.95124791 31.80859375 83.34765625 C29.7208826 85.80408311 27.59424481 88.22249404 25.44921875 90.62890625 C21.66738297 94.65605141 21.66738297 94.65605141 21.03125 99.86328125 C21.92980116 103.80276251 23.20675333 106.35566147 25.375 109.75 C25.72957275 110.30534424 26.08414551 110.86068848 26.44946289 111.43286133 C32.20856397 120.31887105 38.64241417 128.55690378 45.83203125 136.328125 C47.55453173 138.21200698 49.15616367 140.13384631 50.75 142.125 C54.85415 146.93948365 59.90799796 150.6854971 64.875 154.5625 C65.80441406 155.30757812 66.73382813 156.05265625 67.69140625 156.8203125 C75.61797531 163.01058548 83.98700612 167.91857901 92.875 172.5625 C93.60509277 172.94921875 94.33518555 173.3359375 95.08740234 173.734375 C105.82791499 179.78517011 105.82791499 179.78517011 117.69921875 181.44140625 C122.77972079 179.38913882 125.69744872 174.81999567 128.875 170.5625 C129.97761686 169.1251119 131.0818935 167.68899605 132.1875 166.25390625 C133.92363183 163.99589498 135.65257088 161.73419633 137.35864258 159.45336914 C144.61902847 149.76435257 144.61902847 149.76435257 149.375 149 C159.45725016 149.52899981 169.83694665 156.36046078 178.75 160.6875 C179.83796875 161.21214844 180.9259375 161.73679687 182.046875 162.27734375 C190.32736441 166.27586859 190.32736441 166.27586859 194.06787109 168.23364258 C197.05814257 169.64919725 198.64382603 169.56764518 201.875 169.5625 C204.515625 170.83984375 204.515625 170.83984375 207.125 172.5 C207.99640625 173.04527344 208.8678125 173.59054687 209.765625 174.15234375 C211.875 175.5625 211.875 175.5625 212.875 176.5625 C213.98899528 190.91660306 212.22781911 206.49521187 202.5625 217.875 C192.38010788 228.95418996 175.98469992 237.64152919 160.96337891 238.78393555 C157.59817285 238.90384754 154.24227479 238.93372079 150.875 238.9375 C149.75738281 238.96199219 148.63976562 238.98648438 147.48828125 239.01171875 C132.55340009 239.06280728 119.07678642 234.2525164 105.375 228.8125 C104.70145477 228.5482724 104.02790955 228.2840448 103.33395386 228.0118103 C93.22482243 224.04255051 83.39680772 219.80002978 73.875 214.5625 C72.56178754 213.87257445 71.24796354 213.18381192 69.93359375 212.49609375 C55.37782587 204.74657628 42.87136807 194.81277644 30.875 183.5625 C29.48482435 182.34766182 28.08942388 181.13876166 26.6875 179.9375 C20.68036839 174.70271388 15.16294961 169.04545501 9.97265625 163.00390625 C8.30487368 161.06281852 6.62413878 159.13599044 4.93359375 157.21484375 C-2.38014746 148.88139824 -9.4305837 140.4020467 -16.125 131.5625 C-16.5487793 131.00771973 -16.97255859 130.45293945 -17.40917969 129.88134766 C-36.20783957 105.1078639 -47.79211576 78.10657886 -45.125 46.5625 C-42.75510967 30.96636459 -31.93124986 14.79458321 -20.125 4.5625 C-13.79095218 0.08577023 -7.56764369 -0.07892635 0 0 Z " fill="#F9F9F9" transform="translate(173.125,135.4375)"/>
</svg>
